<?xml version="1.0" encoding="utf-8"?>
<!-- Generator: Adobe Illustrator 14.0.0, SVG Export Plug-In . SVG Version: 6.00 Build 43363)  -->
<!DOCTYPE svg PUBLIC "-//W3C//DTD SVG 1.1//EN" "http://www.w3.org/Graphics/SVG/1.1/DTD/svg11.dtd">
<svg version="1.1" id="圖層_1" xmlns="http://www.w3.org/2000/svg" xmlns:xlink="http://www.w3.org/1999/xlink" x="0px" y="0px"
	 width="595.28px" height="595.275px" viewBox="0 0 595.28 595.275" enable-background="new 0 0 595.28 595.275"
	 xml:space="preserve">
<g>
	<path d="M297,16c37.942,0,74.741,7.427,109.374,22.076c33.459,14.152,63.512,34.416,89.324,60.227
		c25.811,25.811,46.074,55.864,60.227,89.324C570.572,222.26,578,259.059,578,297s-7.428,74.74-22.076,109.374
		c-14.152,33.459-34.416,63.512-60.227,89.325c-25.813,25.811-55.865,46.074-89.324,60.227
		C371.74,570.573,334.941,578.001,297,578.001c-37.941,0-74.74-7.428-109.373-22.076c-33.459-14.152-63.512-34.416-89.323-60.227
		c-25.812-25.813-46.075-55.865-60.227-89.325C23.428,371.74,16,334.941,16,297s7.428-74.74,22.076-109.373
		c14.152-33.459,34.416-63.513,60.227-89.324c25.811-25.812,55.864-46.075,89.323-60.227C222.26,23.427,259.058,16,297,16 M297,1
		C133.524,1,1,133.524,1,297c0,163.478,132.524,296.001,296,296.001c163.477,0,296-132.523,296-296.001C593,133.524,460.477,1,297,1
		L297,1z"/>
</g>
<g>
	<path d="M260.999,113.534c0,6.072,7.807,11.277,24.289,15.614c9.542,3.036,14.746,7.807,14.746,14.747
		c0,8.241-1.734,14.313-4.77,18.217c-2.603,17.349-3.47,39.903-3.47,68.096c0,3.036,0,5.638,0,8.241
		c13.011-2.168,26.023-4.337,39.035-6.506c7.374-0.434,13.88-1.735,19.519-4.337c7.807-3.47,13.012-5.638,16.048-5.638
		c7.807,0,17.349,3.47,29.06,9.542c9.108,4.771,17.783,8.241,25.591,9.976c7.373,1.735,12.578,4.337,15.18,7.807
		c3.036,3.904,4.771,6.506,4.771,8.241c0,5.638-3.036,8.241-8.675,8.241c-7.373,0-19.084-3.036-34.698-9.976
		c-15.614-5.638-30.361-8.674-43.373-8.674c-15.181,0-36.434,2.603-63.325,7.807c-0.434,8.241-0.867,16.048-1.734,22.988
		c2.603,0,4.337-0.434,6.072-0.434c4.336,0,9.542,5.205,15.18,15.18c36.867,67.662,60.288,106.264,70.264,115.806
		c9.543,9.976,25.157,16.917,46.844,21.253c19.951,4.338,40.337,16.048,60.722,36c-21.687-3.47-40.337-6.072-55.951-7.374
		c-19.951-0.867-36.434-6.506-49.445-16.915s-43.807-58.554-92.818-144.433c-0.867-1.735-1.735-3.036-2.603-4.337
		c-3.036,22.554-7.807,43.807-13.879,63.759c-11.277,28.626-26.024,51.18-43.807,67.662c-19.084,16.482-49.012,29.928-90.65,41.639
		c48.578-32.097,80.24-57.253,94.554-76.337c11.71-18.217,20.819-37.734,26.892-58.987c4.771-18.217,8.24-42.072,10.409-71.132
		c-26.024,5.638-49.445,12.145-69.397,19.952c-6.94,3.47-11.711,5.205-14.747,5.205c-16.916,0-34.265-4.771-52.481-15.181
		c14.747-2.603,31.229-5.639,50.313-9.976c29.06-6.506,58.12-12.578,87.18-17.783c0.867-16.482,1.302-35.132,1.302-55.084
		c0-15.18-3.904-30.361-11.711-45.542c-6.072-7.807-8.675-14.747-8.675-20.819c0-5.205,3.036-10.409,9.976-15.18
		C261.432,110.932,260.999,113.534,260.999,113.534z"/>
</g>
</svg>
