<?xml version="1.0" encoding="utf-8"?>
<!-- Generator: Adobe Illustrator 14.0.0, SVG Export Plug-In . SVG Version: 6.00 Build 43363)  -->
<!DOCTYPE svg PUBLIC "-//W3C//DTD SVG 1.1//EN" "http://www.w3.org/Graphics/SVG/1.1/DTD/svg11.dtd">
<svg version="1.1" id="圖層_1" xmlns="http://www.w3.org/2000/svg" xmlns:xlink="http://www.w3.org/1999/xlink" x="0px" y="0px"
	 width="595.28px" height="595.275px" viewBox="0 0 595.28 595.275" enable-background="new 0 0 595.28 595.275"
	 xml:space="preserve">
<g>
	<path d="M297,16c37.942,0,74.741,7.427,109.374,22.076c33.459,14.152,63.512,34.416,89.324,60.227
		c25.811,25.811,46.074,55.864,60.227,89.324C570.572,222.26,578,259.059,578,297s-7.428,74.74-22.076,109.374
		c-14.152,33.459-34.416,63.512-60.227,89.325c-25.813,25.811-55.865,46.074-89.324,60.227
		C371.74,570.573,334.941,578.001,297,578.001c-37.941,0-74.74-7.428-109.373-22.076c-33.459-14.152-63.512-34.416-89.323-60.227
		c-25.812-25.813-46.075-55.865-60.227-89.325C23.428,371.74,16,334.941,16,297s7.428-74.74,22.076-109.373
		c14.152-33.459,34.416-63.513,60.227-89.324c25.811-25.812,55.864-46.075,89.323-60.227C222.26,23.427,259.058,16,297,16 M297,1
		C133.524,1,1,133.524,1,297c0,163.478,132.524,296.001,296,296.001c163.477,0,296-132.523,296-296.001C593,133.524,460.477,1,297,1
		L297,1z"/>
</g>
<g>
	<path d="M213.722,335.171c0,3.036-4.337,6.506-12.579,10.41l-28.192,15.181l10.41-10.41c0-0.868-3.036-1.301-8.675-1.301
		c-14.747,0-26.024-3.47-33.831-10.41c14.747-0.434,29.06-3.903,42.506-9.976c6.072-2.169,9.976-3.47,11.711-3.47
		C207.215,325.195,213.722,328.665,213.722,335.171z M258.83,187.702c-1.735,1.735-3.47,2.603-4.337,3.47
		c3.47,10.843,5.205,20.385,5.205,29.06c0,16.916-5.638,25.157-16.916,25.157c-4.337,0-8.241-12.578-12.578-38.168
		c-9.108,4.337-17.349,6.072-24.723,6.072c-12.145,0-30.795-7.374-55.951-22.12l51.614-1.735c6.94-0.434,15.615-2.602,25.157-6.072
		c-3.904-25.59-8.241-45.108-12.578-58.12c13.445,13.446,24.723,29.927,33.831,49.445c6.939-2.603,13.879-6.072,21.252-9.976
		c9.976-3.47,20.386-5.638,31.228-5.638C285.721,166.016,271.841,175.558,258.83,187.702z M220.661,464.423
		c-3.47,12.145-5.639,18.217-6.939,18.217c-4.771,0-8.675-3.036-11.711-8.24c-4.771-8.241-9.976-14.313-15.181-18.65
		c-6.072-3.471-9.542-7.808-10.41-13.88c6.94,4.771,12.579,6.939,16.916,6.939c2.603,0,5.639-4.337,9.108-13.445
		c0,0,16.048-33.832,48.578-101.927C245.817,360.761,235.408,404.568,220.661,464.423z M228.902,257.967
		c11.277,4.771,16.916,8.674,16.916,11.277c0,12.578-6.506,19.952-18.65,22.12c-3.903,0-7.807-3.47-11.71-11.277
		c-6.072-10.41-17.35-21.687-33.831-34.698C201.577,249.292,217.625,253.629,228.902,257.967z M440.129,149.534
		c4.771,1.735,7.373,4.337,7.373,7.808c0,2.602-1.734,5.638-4.337,8.241c-2.169,2.168-7.374,3.904-16.048,5.205
		c-16.482,1.735-29.494,3.904-39.47,6.506c-10.41,3.036-20.386,5.205-29.494,6.94c-3.903,6.506-7.807,13.012-12.145,19.518
		c-9.976,13.879-17.783,22.554-23.855,26.458c-4.337,3.036-9.107,6.506-15.18,10.41c3.47-6.94,7.807-14.747,13.445-23.422
		c3.903-6.939,8.675-16.916,13.879-29.494c-9.108,1.301-17.782,1.735-25.59,1.735c-13.878,0-24.289-1.301-30.361-4.771
		c21.686-4.337,42.505-9.976,63.325-16.048c0.434-0.868,0.867-2.168,1.301-3.036c6.072-19.518,9.108-33.397,9.542-42.072
		c0-5.205-2.603-10.41-6.939-15.181c-5.205-4.337-9.542-9.108-13.012-13.446c6.072,0,15.614,4.337,28.626,12.145
		c15.614,8.675,23.855,14.747,23.855,18.217c0,1.301-1.302,2.602-3.036,3.47c-1.735,2.603-4.338,10.843-8.675,23.855
		c-0.867,2.603-2.169,4.771-3.036,6.94c7.808-2.603,15.614-5.205,23.422-8.241c8.675-3.47,15.614-5.639,19.951-5.639
		C422.779,145.63,431.454,146.932,440.129,149.534z M310.877,292.665c3.903,3.47,6.072,6.94,6.072,10.41
		c0,2.603-0.867,6.072-2.169,10.41c-6.506,35.566-9.542,63.758-9.542,84.578c0,17.783,3.036,29.494,9.976,34.699
		c9.542,9.108,29.494,13.445,58.987,13.445c24.723,0,44.241-2.168,58.987-6.939c3.904-1.301,6.072-3.903,6.072-7.373
		c0-7.374-7.373-29.928-22.12-67.663c18.217,17.783,31.229,32.529,39.036,44.674c4.771,8.675,11.277,17.784,19.518,26.458
		c4.771,4.771,7.374,8.241,7.374,9.976c0,3.47-13.446,7.374-39.903,12.578c-25.156,5.639-47.711,8.675-67.229,8.675
		c-33.831,0-56.819-6.072-68.529-17.783c-13.012-10.409-19.084-27.325-19.084-50.747V297.87c0-7.807-3.47-16.916-9.976-26.892
		C287.456,274.015,298.299,281.388,310.877,292.665z M405.43,254.063c3.904,11.711,7.374,19.084,10.844,21.687
		c1.735,3.036,2.603,6.072,2.603,8.675c0,3.47-1.302,6.506-3.903,8.241c-2.603,3.47-5.205,9.108-7.374,17.783
		c-9.976,32.963-19.951,53.783-29.928,63.325c-3.47,2.603-6.506,5.639-8.24,9.108c-1.735,2.169-3.036,3.036-4.771,3.036
		c-3.47,0-6.506-3.036-9.976-9.542c-6.072-8.675-10.409-13.879-13.012-16.048c-5.205-4.337-10.844-14.313-17.783-29.927
		c16.048,14.747,28.626,21.687,37.301,21.687c3.036,0,6.072-1.735,9.542-6.072c4.338-6.072,8.241-17.349,11.711-32.963
		c2.603-13.446,4.337-25.59,4.337-36.867c0-6.072-0.867-10.843-2.602-15.181c-1.735-3.47-4.771-5.205-8.675-5.205
		c-6.94,0-18.65,4.771-35.566,13.446c-3.47,2.603-6.072,3.47-7.373,3.47c-4.338,0-17.783-3.903-40.77-12.144
		c7.373-0.868,14.746-3.47,22.12-6.94c28.192-9.542,49.879-14.747,65.06-14.747C391.117,238.882,399.792,244.087,405.43,254.063z"/>
</g>
</svg>
