<?xml version="1.0" encoding="utf-8"?>
<!-- Generator: Adobe Illustrator 14.0.0, SVG Export Plug-In . SVG Version: 6.00 Build 43363)  -->
<!DOCTYPE svg PUBLIC "-//W3C//DTD SVG 1.1//EN" "http://www.w3.org/Graphics/SVG/1.1/DTD/svg11.dtd">
<svg version="1.1" id="圖層_1" xmlns="http://www.w3.org/2000/svg" xmlns:xlink="http://www.w3.org/1999/xlink" x="0px" y="0px"
	 width="595.28px" height="595.275px" viewBox="0 0 595.28 595.275" enable-background="new 0 0 595.28 595.275"
	 xml:space="preserve">
<g>
	<path d="M297,16c37.942,0,74.741,7.427,109.374,22.076c33.459,14.152,63.512,34.416,89.324,60.227
		c25.811,25.811,46.074,55.864,60.227,89.324C570.572,222.26,578,259.059,578,297s-7.428,74.74-22.076,109.374
		c-14.152,33.459-34.416,63.512-60.227,89.325c-25.813,25.811-55.865,46.074-89.324,60.227
		C371.74,570.573,334.941,578.001,297,578.001c-37.941,0-74.74-7.428-109.373-22.076c-33.459-14.152-63.512-34.416-89.323-60.227
		c-25.812-25.813-46.075-55.865-60.227-89.325C23.428,371.74,16,334.941,16,297s7.428-74.74,22.076-109.373
		c14.152-33.459,34.416-63.513,60.227-89.324c25.811-25.812,55.864-46.075,89.323-60.227C222.26,23.427,259.058,16,297,16 M297,1
		C133.524,1,1,133.524,1,297c0,163.478,132.524,296.001,296,296.001c163.477,0,296-132.523,296-296.001C593,133.524,460.477,1,297,1
		L297,1z"/>
</g>
<g>
	<path d="M179.891,349.05c0,16.481,2.602,30.795,7.807,42.506c5.205,12.578,12.145,22.554,20.385,29.493
		c3.47,3.47,5.639,6.506,5.639,9.109c0,9.108-5.205,13.446-15.181,13.446c-2.169,0-5.639-2.169-10.843-7.374
		c-5.205-5.204-9.108-10.409-11.277-16.482c-2.602-6.072-6.072-11.277-10.409-15.614c-3.036-3.036-4.771-8.241-4.771-15.181
		c0-8.241-0.434-15.614-2.169-21.687c-2.168-6.072-3.036-11.277-3.036-15.181c0-6.94,2.603-18.65,7.807-34.265
		c5.639-15.181,11.711-27.325,17.783-36.867C180.324,312.617,179.891,335.171,179.891,349.05z M379.406,166.883
		c4.771,3.47,13.012,6.072,24.723,7.807c8.675,1.735,13.012,5.638,13.012,11.71c0,0.868-1.301,2.169-3.036,3.904
		c-2.603,3.036-5.639,4.337-8.675,4.337c-2.602,0-6.506-0.434-12.578-2.169c-9.108-1.735-16.915-3.036-23.421-3.036
		c-16.048,0-34.698,2.169-56.385,6.072c-4.338,0.868-7.808,1.735-11.277,2.169c-9.108,16.481-18.216,29.06-27.325,36.867
		c-10.409,9.976-26.024,16.916-47.277,21.252c20.819-13.012,36.868-29.927,49.012-50.313c0.434-0.868,0.867-1.301,0.867-2.169
		c-19.518,5.205-34.699,9.542-45.976,13.879c-9.108,4.337-15.614,6.072-19.084,6.072c-8.675,0-20.819-4.337-35.566-13.445
		c14.747-1.301,28.193-3.47,39.47-6.506c16.482-5.205,39.47-11.277,68.963-18.216c4.338-13.012,6.506-26.458,6.94-40.337
		c0-8.241-1.735-14.313-4.771-18.65c-2.603-3.47-10.409-7.373-22.554-12.578c9.542,0,19.518,2.603,29.927,7.374
		c17.349,6.506,26.024,14.747,26.024,24.723c0,5.205-3.47,16.482-9.976,33.831c8.674-1.735,18.217-3.904,28.192-6.506
		c5.204-0.868,10.409-2.603,15.614-5.205c3.47-2.168,6.939-3.47,10.409-3.47C369.864,164.281,374.635,165.148,379.406,166.883z
		 M424.515,254.063c8.674,13.012,16.481,21.253,22.987,24.289c3.47,3.47,5.205,6.506,5.205,9.542c0,6.072-2.169,11.277-5.639,14.747
		c-4.337,6.072-8.241,16.481-11.711,31.662c-15.614,58.12-31.229,95.855-47.276,112.771c-5.205,4.337-9.542,9.542-12.578,16.481
		c-2.603,3.47-4.771,5.639-7.374,5.639c-4.771,0-9.542-3.903-14.746-11.277c-8.675-10.409-15.181-16.481-19.085-19.084
		c-6.939-5.205-15.614-16.915-25.59-35.566c24.289,15.614,42.939,23.421,55.951,23.421c6.072,0,12.145-3.903,18.217-11.711
		c8.675-12.578,16.048-34.265,22.988-64.625c5.204-26.458,7.807-50.747,7.807-72.867c0-7.374-3.47-13.446-9.976-18.651
		c-7.373-4.337-19.952-6.506-38.168-6.506c-22.121,0-60.723,9.976-116.24,29.494c-11.277,5.205-19.952,7.807-25.157,7.807
		c-4.337,0-17.349-3.903-39.036-12.144c16.048-1.735,31.663-6.072,46.409-12.579c59.854-18.216,105.396-27.759,137.493-27.759
		C394.587,237.147,413.237,242.786,424.515,254.063z M261.432,316.954c-6.506,3.904-10.843,8.675-12.579,14.747
		c-0.434,1.301-0.867,2.168-0.867,3.036c7.807-1.735,20.819-5.639,39.036-11.711c15.614-16.482,26.891-29.06,34.264-38.168
		c5.205-5.205,7.808-8.674,7.808-10.409c0-1.735-4.771-4.337-13.88-6.94c10.41-2.168,17.35-3.47,20.386-3.47
		c1.301,0,3.903,0.867,7.373,2.168c4.338,1.735,8.675,3.036,13.012,3.904c5.639,0.867,8.675,2.602,8.675,6.072
		c0,1.735-3.47,4.771-10.409,8.674c-7.808,4.771-16.048,10.41-24.289,16.916c-5.205,4.337-12.145,8.675-19.951,13.012
		c5.204-1.735,10.843-3.47,16.481-6.072c10.409-3.47,17.783-5.639,22.987-5.639c4.771,0,9.977,1.735,15.181,4.337
		c3.036,2.168,4.771,4.771,4.771,7.374c0,4.771-3.903,8.241-11.277,9.976c-8.241,2.169-28.626,9.976-61.156,23.855
		c1.735,0.867,3.036,1.735,4.337,1.735c3.47,1.735,5.639,4.337,5.639,6.939c0,1.301-0.868,3.47-1.735,6.506
		c0,0.868-0.434,1.735-0.434,2.168c0.434,0,0.867-0.434,1.301-0.434c9.108-2.602,16.048-4.771,20.819-7.373
		c4.337-1.735,8.675-2.603,12.145-2.603c6.939,0,16.048,2.169,27.325,5.639c9.976,4.337,15.181,8.241,15.181,11.277
		c0,4.771-3.036,6.939-8.675,6.939c-2.169,0-5.205,0-9.542-0.867c-5.639-0.435-10.844-0.868-15.614-0.868
		c-4.338,0-10.41,0.868-18.217,1.735c-9.542,2.169-18.217,3.903-26.024,5.639c0,2.168,0,4.337,0,6.072v72.867
		c0,4.338-1.734,6.939-5.204,6.939c-4.338,0-8.675-5.204-13.446-15.614c-5.638-8.674-8.24-14.746-8.24-18.216
		c0-2.603,1.301-5.205,4.771-7.808c2.169-2.169,3.47-8.675,3.47-19.518l-0.867-20.386c-8.675,2.169-15.614,3.903-21.687,5.639
		c-7.374,3.47-13.446,4.771-18.217,4.771c-6.072,0-17.349-4.771-33.831-15.181c19.952-3.035,44.241-7.807,72.867-14.313v-4.338
		c0-7.373-3.903-15.18-10.844-23.855c-7.807,1.301-15.614,1.735-22.987,1.735c-12.578,0-22.554-3.47-30.361-10.41
		c6.072,1.301,13.012,1.735,20.385,1.735c-1.301-1.735-2.602-3.904-3.47-6.506c-2.603-4.771-3.47-9.542-3.47-13.879
		c0-2.603,0.434-4.771,2.168-5.639c2.603-2.168,6.94-10.41,13.012-24.723l5.205,13.446c-0.434,2.602,0,3.47,1.735,3.47
		s6.073-0.868,12.144-3.47c15.615-6.506,28.193-10.41,36.867-11.711C288.757,298.304,274.877,308.279,261.432,316.954z
		 M285.288,341.243c3.903,3.036,7.373,5.205,10.843,6.939L335.6,326.93c0-0.868-1.302-1.735-3.036-1.735
		c-26.024,8.241-39.036,12.145-39.036,12.145c-3.47,1.301-6.939,2.169-10.409,2.603C283.986,340.375,284.419,340.81,285.288,341.243
		z"/>
</g>
</svg>
