<?xml version="1.0" encoding="utf-8"?>
<!-- Generator: Adobe Illustrator 14.0.0, SVG Export Plug-In . SVG Version: 6.00 Build 43363)  -->
<!DOCTYPE svg PUBLIC "-//W3C//DTD SVG 1.1//EN" "http://www.w3.org/Graphics/SVG/1.1/DTD/svg11.dtd">
<svg version="1.1" id="圖層_1" xmlns="http://www.w3.org/2000/svg" xmlns:xlink="http://www.w3.org/1999/xlink" x="0px" y="0px"
	 width="595.28px" height="595.275px" viewBox="0 0 595.28 595.275" enable-background="new 0 0 595.28 595.275"
	 xml:space="preserve">
<g>
	<path d="M297,16c37.942,0,74.741,7.427,109.374,22.076c33.459,14.152,63.512,34.416,89.324,60.227
		c25.811,25.811,46.074,55.864,60.227,89.324C570.572,222.26,578,259.059,578,297s-7.428,74.74-22.076,109.374
		c-14.152,33.459-34.416,63.512-60.227,89.325c-25.813,25.811-55.865,46.074-89.324,60.227
		C371.74,570.573,334.941,578.001,297,578.001c-37.941,0-74.74-7.428-109.373-22.076c-33.459-14.152-63.512-34.416-89.323-60.227
		c-25.812-25.813-46.075-55.865-60.227-89.325C23.428,371.74,16,334.941,16,297s7.428-74.74,22.076-109.373
		c14.152-33.459,34.416-63.513,60.227-89.324c25.811-25.812,55.864-46.075,89.323-60.227C222.26,23.427,259.058,16,297,16 M297,1
		C133.524,1,1,133.524,1,297c0,163.478,132.524,296.001,296,296.001c163.477,0,296-132.523,296-296.001C593,133.524,460.477,1,297,1
		L297,1z"/>
</g>
<g>
	<path d="M177.288,248.425c8.241,6.939,12.578,12.578,12.578,17.349c0,1.735-0.867,3.903-2.603,5.639
		c-0.867,3.47-2.168,7.373-3.903,11.71c-2.603,10.843-6.506,21.687-10.843,32.964c20.819-7.808,35.566-13.879,44.241-18.217
		c4.337-1.735,6.939-3.036,8.674-3.036c3.47,0,11.277,4.771,23.421,14.313c6.94,6.506,10.843,11.277,10.843,14.313
		c0,3.904-1.301,6.072-3.47,6.94c-1.735,0.434-3.47,2.603-4.771,6.072c-8.675,17.783-16.916,30.795-24.289,38.602
		c4.337,0.868,8.241,2.169,12.145,3.036c4.337,2.169,6.506,4.771,6.506,7.808c0,2.603-1.301,5.205-3.903,7.373
		c-2.168,1.735-6.94,3.47-14.747,4.771h-28.626c-3.47,0-6.072,0-8.675-0.434c0.868,2.603,1.735,5.204,1.735,6.939
		c0,10.409-5.638,15.614-16.916,15.614c-1.735,0-3.47-3.47-6.072-10.409c-3.47-9.542-6.506-16.049-8.674-18.65
		c-2.603-1.735-3.47-5.205-3.47-10.41c0-1.734,0-3.903,0.867-6.072c0-2.603,0-5.204-0.434-7.373c0-1.735-0.868-6.072-1.735-13.012
		v-1.301c-2.603,4.337-4.771,8.241-6.506,12.145c-13.879,27.325-32.53,49.445-55.083,66.795
		c24.723-35.567,44.674-78.94,60.289-129.252c4.337-14.747,6.939-28.192,7.374-40.337c0-3.47-0.434-6.94-1.301-10.41
		c-1.735-4.337-2.169-8.675-2.169-13.012c0-3.903,1.735-7.807,5.205-12.144C166.445,238.015,171.216,244.955,177.288,248.425z
		 M149.529,201.582c6.94,0,28.626-8.674,65.493-26.458c7.808-3.903,13.446-6.072,17.35-6.072c6.939,0,13.879,2.169,20.819,5.639
		c4.338,2.602,6.506,6.072,6.506,9.976c0,4.771-4.337,8.241-13.012,9.976c-9.542,2.168-35.132,11.71-76.771,28.626l45.542-25.156
		c0-0.868-1.301-1.735-3.47-1.735c-16.916,6.506-25.157,9.542-25.157,9.542c-9.976,3.904-19.518,5.639-29.06,5.639
		c-15.181,0-27.759-4.337-37.301-13.446C129.144,200.714,139.12,201.582,149.529,201.582z M208.517,376.809
		c3.036-1.735,5.205-2.169,6.072-2.169c2.603-9.976,5.205-20.819,7.807-32.53c0.868-6.072,1.735-10.843,1.735-15.18
		c0-5.639-2.602-8.675-6.939-8.675c-2.169,0-9.108,2.168-20.819,6.506c-2.602,1.735-4.771,2.169-6.506,2.169
		c-6.506,0-13.446-1.301-20.385-3.904c-2.603,6.072-5.639,12.145-8.241,17.783c1.301,6.939,3.036,13.012,5.205,17.783
		c4.337,11.711,9.976,21.253,16.916,28.626c0,0.434,0.434,0.868,0.434,0.868C192.469,384.616,200.709,381.146,208.517,376.809z
		 M288.323,175.992c7.808,0,26.458-4.771,55.952-14.747v-2.168c0-16.916-7.374-34.265-22.121-52.481
		c7.374,1.301,13.013,3.47,16.916,6.939c5.205,4.337,11.277,7.807,19.084,10.41c7.374,2.603,11.277,8.675,11.277,18.217
		c0,1.735-0.868,3.903-1.735,6.939c-0.434,1.301-0.434,2.603-0.434,4.337c8.241-2.603,16.916-6.072,26.458-9.542
		c13.012-4.337,22.554-6.94,28.626-6.94c5.639,0,11.711,1.735,17.783,4.771c3.47,2.602,5.639,5.638,5.639,8.674
		c0,6.072-4.771,9.976-14.313,12.145c-9.542,2.603-31.662,10.843-66.795,25.156c-0.434,4.337-0.867,9.108-1.301,13.879
		c6.939-2.168,14.313-4.771,22.12-8.241c6.506-2.603,12.145-3.904,16.481-3.904c6.94,0,13.88,1.301,19.952,3.904
		c5.639,2.603,8.675,5.205,8.675,8.241c0,4.337-4.771,7.374-13.446,9.976c-10.843,0.434-29.06,3.47-54.649,8.674
		c-0.868,6.94-1.302,14.313-1.302,21.687c0,1.735-0.434,2.603-0.434,3.47c9.108-1.735,18.217-3.036,27.325-4.771
		c6.939-0.434,13.445-1.735,18.65-3.904c7.373-3.036,12.578-4.771,15.614-4.771c6.506,0,14.747,3.036,24.289,8.241
		c7.807,3.904,15.181,6.94,21.687,9.108c6.072,1.301,9.976,3.47,12.578,6.506s3.903,5.205,3.903,6.506
		c0,6.072-2.603,8.674-6.939,8.674c-6.072,0-16.048-3.036-29.928-9.108c-13.879-5.205-26.457-7.807-37.734-7.807
		c-13.012,0-31.662,2.169-55.518,6.072c-26.892,4.771-50.746,10.41-71.131,16.916c-5.205,2.603-9.542,3.904-12.145,3.904
		c-12.145,0-24.289-3.036-37.301-9.976c11.277-2.168,24.723-4.771,39.47-8.241c22.554-5.205,45.541-9.976,68.095-14.313
		c-0.867-1.301-0.867-3.036-0.867-4.771c0-1.735,0.434-5.639,2.168-11.711c0-1.735,0.434-3.904,0.434-7.374
		c-12.578,2.603-25.156,3.904-38.168,3.904c-9.108,0-18.65-4.337-28.625-13.446c8.675,2.603,15.614,3.47,21.687,3.47
		c5.638,0,15.18-1.735,28.625-5.205c5.205-1.301,10.844-3.036,16.915-5.205c0-8.241,0.435-18.216,0.435-29.927
		c-16.482,4.337-32.964,6.506-49.011,6.506c-13.446,0-24.289-3.903-32.53-12.145C270.541,175.124,278.781,175.992,288.323,175.992z
		 M314.347,313.918c3.903,4.337,6.072,8.675,6.072,13.012c12.145-1.735,23.855-4.771,35.132-9.542
		c6.94-2.602,11.711-4.337,13.88-4.337c10.409,0,15.614,3.036,15.614,8.674c0,2.603-5.205,6.072-15.181,9.542L335.6,345.581
		l8.675-6.94c0-0.867-2.603-1.735-6.94-1.735c-7.807,0-14.746-0.868-20.385-2.603v0.868c-2.603,17.349-3.903,28.192-4.338,32.963
		c14.313-3.47,26.892-7.807,38.169-13.012c4.771-3.036,8.675-4.771,12.145-4.771c5.638,0,10.409,1.301,14.746,3.903
		c2.603,2.169,4.771,4.771,5.639,8.241c-0.867,4.337-4.337,6.505-10.409,6.505c-5.205,0-12.145,0.868-20.386,2.603
		c-9.108,3.036-19.084,4.338-30.361,4.338c-3.47,0-6.939,0-9.976-0.868c0.868,5.639,3.036,10.41,6.506,13.88
		c4.338,4.337,7.808,7.807,9.542,10.409c9.108-2.603,15.181-4.771,18.217-6.506c2.603-2.169,4.338-3.47,6.072-3.47
		c1.735,0,6.072,0.434,13.446,0.867c7.807,0.868,12.145,2.603,12.145,4.338c0,0.434-0.435,0.867-0.435,0.867l10.41,2.603
		c4.337,0,6.939-2.603,6.939-8.675v-86.313c0-6.506-3.036-9.976-8.241-9.976c-4.337,0-14.746,2.168-31.229,6.506
		c-6.506,2.603-13.012,3.47-19.951,3.47c-7.808,0-18.65-2.603-32.097-8.241c18.65-3.036,32.53-6.072,41.205-9.542
		c15.614-6.072,29.06-9.108,40.337-9.108c6.506,0,13.012,2.602,19.518,7.807c6.506,6.939,12.578,12.578,17.783,16.916
		c6.506,3.036,9.976,6.939,9.976,12.145c0,0.867-2.169,2.602-6.506,4.337c-6.939,4.337-10.409,10.41-10.409,17.35v81.975
		c0,10.41-2.603,15.181-6.94,15.181c-1.734,0-6.071-2.169-12.144-7.374c-5.639-5.205-11.277-9.542-16.482-13.012
		c-3.47-1.301-6.939-3.903-9.976-7.373c-2.169,1.734-3.903,3.036-5.205,3.903c-1.734,0.434-7.373,6.072-16.915,16.917
		c-12.145,13.445-24.723,25.156-37.301,35.132c-14.747,11.277-30.361,20.819-45.975,27.759
		c24.289-20.819,45.975-43.373,64.625-67.663c-31.228,3.47-49.011,4.772-54.216,4.772c-11.277,0-16.915-2.603-16.915-8.242
		c0.867-6.939,2.168-10.409,4.771-10.409c1.735,4.771,4.771,6.939,8.675,6.939c4.771,0,17.35-2.603,37.734-8.675
		c0.434,0,0.868-0.434,1.735-0.434c-0.867-0.867-1.735-1.302-1.735-1.735c-8.675-10.409-15.18-16.915-19.517-18.65
		c-4.337-0.867-6.506-2.603-6.506-4.337c0-3.47,1.734-6.072,5.639-7.808c5.204-1.734,8.24-6.072,8.24-12.578
		c0-5.205,0.434-11.71,1.302-20.385c0-13.879-2.169-26.024-6.506-37.301C300.467,303.942,307.841,307.846,314.347,313.918z
		 M418.442,445.772c18.217,9.108,27.325,16.482,27.325,21.687c0,12.145-4.771,18.65-13.446,18.65
		c-2.603,0-10.843-6.939-25.156-20.385c-12.578-12.578-30.361-25.156-52.915-39.036C378.973,430.158,400.226,436.23,418.442,445.772
		z M364.659,185.534l42.072-22.988c0-0.868-0.434-1.735-1.302-1.735c-18.65,5.639-32.096,9.542-39.902,11.71
		C365.093,176.859,364.659,181.196,364.659,185.534z"/>
</g>
</svg>
