<?xml version="1.0" encoding="utf-8"?>
<!-- Generator: Adobe Illustrator 14.0.0, SVG Export Plug-In . SVG Version: 6.00 Build 43363)  -->
<!DOCTYPE svg PUBLIC "-//W3C//DTD SVG 1.1//EN" "http://www.w3.org/Graphics/SVG/1.1/DTD/svg11.dtd">
<svg version="1.1" id="圖層_1" xmlns="http://www.w3.org/2000/svg" xmlns:xlink="http://www.w3.org/1999/xlink" x="0px" y="0px"
	 width="595.28px" height="595.275px" viewBox="0 0 595.28 595.275" enable-background="new 0 0 595.28 595.275"
	 xml:space="preserve">
<g display="none">
	<path display="inline" d="M297,16c37.942,0,74.74,7.428,109.374,22.076c33.46,14.152,63.513,34.416,89.324,60.227
		c25.812,25.811,46.074,55.864,60.227,89.324C570.572,222.26,578,259.059,578,297c0,37.942-7.428,74.74-22.076,109.374
		c-14.152,33.46-34.415,63.513-60.227,89.324s-55.864,46.074-89.324,60.227c-34.634,14.648-71.432,22.076-109.374,22.076
		c-37.941,0-74.74-7.428-109.373-22.076c-33.459-14.152-63.512-34.415-89.323-60.227c-25.812-25.812-46.075-55.864-60.227-89.324
		C23.428,371.74,16,334.942,16,297c0-37.941,7.428-74.74,22.076-109.373c14.152-33.459,34.416-63.513,60.227-89.324
		c25.811-25.812,55.864-46.075,89.323-60.227C222.26,23.428,259.059,16,297,16 M297,1C133.524,1,1,133.524,1,297
		c0,163.478,132.524,296.001,296,296.001c163.477,0,296-132.523,296-296.001C593,133.524,460.477,1,297,1L297,1z"/>
</g>
<g>
	<path d="M305.489,96.653c5.985,7.98,9.477,12.468,9.477,13.965c0,1.496-1.995,2.992-5.985,3.99
		c-4.987,1.995-26.932,17.954-66.332,46.881c0,1.496,1.995,1.995,5.985,1.995c22.941-1.496,66.332-4.489,130.668-9.476
		c-8.977-11.97-20.946-24.438-35.41-37.405c24.937,8.478,43.889,17.954,57.354,27.929c13.965,10.474,20.947,18.952,20.947,24.937
		c0,10.972-5.486,17.456-15.96,19.45c-5.485,0-10.972-5.486-15.959-17.456c-2.494-4.987-5.486-10.473-9.477-15.46
		c-6.981,2.494-14.463,4.488-21.944,6.483c9.477,17.955,14.464,29.924,14.464,35.909c0,2.993-10.973,13.466-32.917,31.42
		c0,3.99,2.494,5.486,7.481,5.486c13.466-0.998,33.914-2.992,61.344-5.985c-4.987-11.471-11.471-22.941-18.453-34.911
		c18.952,9.975,33.914,20.448,44.388,32.417s15.959,20.947,15.959,27.929c0,13.466-7.48,21.446-21.445,23.44
		c-3.491,0-6.982-6.483-9.975-20.448c-2.493-7.979-5.486-16.458-8.977-24.937c-45.385,16.957-73.813,27.929-84.785,33.415
		c1.496,0.998,2.992,1.497,4.488,2.494c43.889,28.927,69.823,44.886,77.803,47.38c7.481,2.494,20.947,3.491,40.896,3.491
		c25.436,0,50.87,10.473,76.306,30.921c-21.944-0.998-46.881-1.496-74.312-1.496c-16.956,0-30.422-1.995-41.395-5.985
		c-13.466-4.489-43.39-23.939-89.771-58.352c-4.987-3.491-9.975-5.984-15.461-7.481c-0.998,0.998-1.995,0.998-1.995,0.998
		c-12.967,6.982-35.41,21.446-68.327,43.39c-48.876,30.922-97.751,53.863-147.126,69.823c14.463-9.476,36.906-23.44,67.828-41.395
		c26.932-16.458,56.855-36.906,89.772-61.843c13.466-10.972,22.443-18.952,27.43-24.438c-3.99-2.992-7.979-8.479-10.972-16.957
		c-57.853,23.939-88.774,37.903-93.263,41.894c-2.494,2.494-4.987,3.491-6.982,3.491c-4.988,0-7.481-9.476-7.481-29.425
		c0-3.99,1.497-6.484,4.489-7.481c6.982-1.496,14.962-8.977,22.942-21.944c6.982-9.975,12.468-20.448,16.957-30.423
		c-1.995-3.491-2.993-11.97-3.491-25.934c0-2.993,2.494-5.985,7.481-7.98c5.486-0.998,11.471-3.491,17.456-7.979
		c24.438-19.451,42.891-36.906,55.858-52.367c7.98-8.977,12.469-16.957,12.469-22.942c0-2.992-0.998-8.977-1.995-17.954
		C291.026,74.708,297.51,84.185,305.489,96.653z M375.313,373.949c0,0.998-3.491,2.494-9.975,5.486
		c-2.494,0.997-4.489,1.995-5.985,2.494c33.914,12.468,50.871,23.939,50.871,34.911c0,1.496-4.489,3.99-12.469,7.979
		c-61.843,32.917-108.724,55.858-141.141,68.825c-23.939,10.474-53.365,20.448-87.777,30.423
		c83.787-42.891,148.623-80.795,195.004-114.709c4.987-2.992,7.481-5.984,7.481-8.478c0-4.987-4.488-10.973-12.469-18.454
		c-45.883,20.947-80.794,35.909-105.232,44.387c-18.952,7.481-42.392,14.463-69.324,20.947
		c62.84-30.922,111.716-58.851,146.627-83.788c3.491-1.995,5.486-3.99,5.486-5.486c0-4.988-4.987-11.97-13.965-19.95
		C357.357,351.506,375.313,362.977,375.313,373.949z M292.522,242.782c4.987,2.993,8.978,5.985,12.468,8.978v-8.479
		c0-3.99,1.497-5.985,4.489-6.982c6.982-1.496,13.964-8.479,21.445-20.947c11.471-16.957,19.45-34.413,23.44-51.37
		c-30.922,8.977-69.822,18.453-116.704,28.428c-6.982,0.998-12.468,2.494-16.957,3.99c2.993,7.481,4.489,12.967,4.489,15.96
		c0,2.992-12.468,15.46-36.906,36.906c0,3.99,2.494,5.486,7.979,5.486c13.965-1.496,35.41-4.987,64.337-9.975
		c-1.496-2.993-2.494-5.486-3.491-8.479c-5.486-15.959-11.471-27.929-17.955-35.909c15.461,6.483,28.428,14.463,38.902,24.438
		c5.485,5.985,8.977,10.972,10.473,15.46C289.53,241.286,291.026,242.283,292.522,242.782z M336.411,329.063
		c0,0.997-2.494,2.494-7.481,4.987c-37.903,18.952-67.329,32.417-87.278,39.898c-14.962,5.985-32.417,11.97-53.364,17.456
		c46.881-25.934,82.79-48.875,108.724-69.324c2.992-1.995,4.489-3.491,4.489-4.987c0-4.987-4.987-11.471-13.965-19.451
		C319.953,309.113,336.411,319.587,336.411,329.063z"/>
</g>
<rect x="10" y="9.138" fill="none" stroke="#000000" stroke-width="15" width="577" height="579"/>
</svg>
