<?xml version="1.0" encoding="utf-8"?>
<!-- Generator: Adobe Illustrator 14.0.0, SVG Export Plug-In . SVG Version: 6.00 Build 43363)  -->
<!DOCTYPE svg PUBLIC "-//W3C//DTD SVG 1.1//EN" "http://www.w3.org/Graphics/SVG/1.1/DTD/svg11.dtd">
<svg version="1.1" id="圖層_1" xmlns="http://www.w3.org/2000/svg" xmlns:xlink="http://www.w3.org/1999/xlink" x="0px" y="0px"
	 width="595.28px" height="595.275px" viewBox="0 0 595.28 595.275" enable-background="new 0 0 595.28 595.275"
	 xml:space="preserve">
<g>
	<path d="M297,16c37.942,0,74.741,7.427,109.374,22.076c33.459,14.152,63.512,34.416,89.324,60.227
		c25.811,25.811,46.074,55.864,60.227,89.324C570.572,222.26,578,259.059,578,297s-7.428,74.74-22.076,109.374
		c-14.152,33.459-34.416,63.512-60.227,89.325c-25.813,25.811-55.865,46.074-89.324,60.227
		C371.74,570.573,334.941,578.001,297,578.001c-37.941,0-74.74-7.428-109.373-22.076c-33.459-14.152-63.512-34.416-89.323-60.227
		c-25.812-25.813-46.075-55.865-60.227-89.325C23.428,371.74,16,334.941,16,297s7.428-74.74,22.076-109.373
		c14.152-33.459,34.416-63.513,60.227-89.324c25.811-25.812,55.864-46.075,89.323-60.227C222.26,23.427,259.058,16,297,16 M297,1
		C133.524,1,1,133.524,1,297c0,163.478,132.524,296.001,296,296.001c163.477,0,296-132.523,296-296.001C593,133.524,460.477,1,297,1
		L297,1z"/>
</g>
<g>
	<path d="M379.406,267.075c4.771,3.47,13.012,5.638,24.723,7.374c8.675,2.168,13.012,6.072,13.012,11.71
		c0,0.868-1.301,2.169-3.036,4.337c-2.603,3.036-5.639,4.337-8.675,4.337c-2.602,0-6.506-0.434-12.578-2.169
		c-9.108-1.735-16.915-3.036-23.421-3.036c-16.482,0-35.566,2.169-57.253,5.639c-4.337,0.868-8.675,1.735-12.145,2.603
		c4.338,0,9.108,3.036,14.313,8.674c32.964,40.337,54.216,63.325,63.759,68.964c7.807,6.072,22.12,10.409,42.071,12.578
		c18.65,4.337,37.301,15.181,56.386,33.397c-19.952-1.735-37.302-3.47-51.614-4.771c-18.65-0.434-33.831-3.903-45.976-10.844
		c-11.277-6.506-37.301-35.132-78.939-86.312v66.361c0,22.12,3.47,45.109,10.844,69.397c2.603,5.639,4.337,9.542,4.337,12.145
		c0,3.904-1.301,7.374-3.036,10.844c-2.603,2.603-5.204,4.337-8.675,4.337c-4.77,0-8.24-1.301-9.975-3.47
		c-4.337-6.072-9.976-11.711-16.915-17.349c-13.013-10.844-26.892-23.422-40.771-38.603c18.217,5.205,33.397,9.976,45.542,13.88
		c2.169,0,3.47-2.169,3.47-6.94l-3.47-100.626c-5.639,6.506-12.578,13.879-20.818,22.554
		c-33.832,37.301-72.867,65.927-117.976,86.747c47.277-38.168,80.241-69.397,99.325-93.687
		c14.747-18.216,22.554-29.927,22.554-35.132c0-1.301-0.434-2.603-0.434-3.47c-14.313,3.904-25.59,7.374-34.265,10.843
		c-9.542,4.337-16.048,6.072-19.518,6.072c-11.277,0-27.325-5.638-47.276-16.916c16.048-1.301,30.361-3.47,42.505-6.072
		c18.217-5.205,42.939-10.843,74.602-17.349l-0.434-20.819c0-14.313-5.205-28.193-15.181-42.072
		c29.493,11.277,44.24,21.253,44.24,30.361c0,1.735-1.301,3.904-3.036,6.506c-3.47,7.807-5.205,15.181-5.205,22.121
		c11.711-2.169,23.855-4.337,36.434-6.94c5.639-0.867,11.277-2.603,16.482-5.205c4.337-1.735,7.807-3.036,11.276-3.036
		C369.864,264.039,374.635,265.34,379.406,267.075z M181.625,220.232c0,2.169-0.868,4.771-2.169,7.374
		c-0.867,3.904-1.301,8.675-1.301,14.313c0,2.603,4.337,5.205,13.445,7.374c7.807,1.735,12.145,3.47,12.145,4.771
		c0,7.807-4.771,11.711-13.879,11.711c-10.41,0-18.217-2.603-22.554-7.807c-7.808-11.277-11.277-19.952-11.277-26.892
		c0-3.47,3.47-6.506,10.41-9.976c6.506-2.168,11.711-6.072,15.181-11.277V220.232z M295.263,155.172
		c1.301,1.735,2.603,3.47,4.336,4.771c20.386-3.903,39.47-6.072,56.819-6.072c13.879,0,26.891,3.036,39.035,8.675
		c13.012,7.374,20.386,13.879,22.555,19.084c2.602,6.072,6.071,10.843,9.542,13.879c4.337,3.904,6.506,7.374,6.506,10.41
		c0,6.94-3.47,9.976-10.41,9.976c-2.168,0-6.506-0.868-12.578-2.603c-5.204-1.301-10.843-2.169-16.048-2.169
		c-6.506,0-13.879,2.169-21.687,6.072c-11.277,4.771-26.457,7.807-45.976,9.542c8.675-5.205,16.916-9.976,24.723-13.446
		c5.205-0.868,14.747-6.94,29.061-18.217c4.337-3.903,6.939-6.939,6.939-8.675c0-3.036-2.603-6.072-7.374-9.108
		c-6.506-1.735-14.746-3.036-24.288-3.036c-14.747,0-30.361,1.735-46.844,4.771c0.435,2.168,0.868,3.903,0.868,5.638
		c0,11.277-4.338,16.916-12.144,16.916c-5.639,0-11.277-5.205-16.916-16.048c-14.313,4.337-26.023,9.108-35.132,14.313
		c-8.241,4.337-13.879,6.506-17.35,6.506c-4.771,0-9.542-0.434-14.313-1.735c-5.205-1.735-9.108-3.036-12.578-3.036
		c-4.771,0-10.843,2.169-18.65,6.506c4.337-9.976,16.916-18.216,37.301-25.156c18.217-6.939,35.132-12.145,51.614-16.481
		c-0.434-0.434-0.434-0.868-0.434-0.868c-7.807-20.385-16.481-35.566-26.024-45.542
		C265.769,129.583,282.251,141.293,295.263,155.172z"/>
</g>
</svg>
