<?xml version="1.0" encoding="utf-8"?>
<!-- Generator: Adobe Illustrator 14.0.0, SVG Export Plug-In . SVG Version: 6.00 Build 43363)  -->
<!DOCTYPE svg PUBLIC "-//W3C//DTD SVG 1.1//EN" "http://www.w3.org/Graphics/SVG/1.1/DTD/svg11.dtd">
<svg version="1.1" id="圖層_1" xmlns="http://www.w3.org/2000/svg" xmlns:xlink="http://www.w3.org/1999/xlink" x="0px" y="0px"
	 width="595.28px" height="595.275px" viewBox="0 0 595.28 595.275" enable-background="new 0 0 595.28 595.275"
	 xml:space="preserve">
<g>
	<path d="M297,16c37.942,0,74.741,7.427,109.374,22.076c33.459,14.152,63.512,34.416,89.324,60.227
		c25.811,25.811,46.074,55.864,60.227,89.324C570.572,222.26,578,259.059,578,297s-7.428,74.74-22.076,109.374
		c-14.152,33.459-34.416,63.512-60.227,89.325c-25.813,25.811-55.865,46.074-89.324,60.227
		C371.74,570.573,334.941,578.001,297,578.001c-37.941,0-74.74-7.428-109.373-22.076c-33.459-14.152-63.512-34.416-89.323-60.227
		c-25.812-25.813-46.075-55.865-60.227-89.325C23.428,371.74,16,334.941,16,297s7.428-74.74,22.076-109.373
		c14.152-33.459,34.416-63.513,60.227-89.324c25.811-25.812,55.864-46.075,89.323-60.227C222.26,23.427,259.058,16,297,16 M297,1
		C133.524,1,1,133.524,1,297c0,163.478,132.524,296.001,296,296.001c163.477,0,296-132.523,296-296.001C593,133.524,460.477,1,297,1
		L297,1z"/>
</g>
<g>
	<path d="M183.36,282.689c9.976,0,35.566-5.205,76.336-16.048c41.638-11.277,67.228-20.819,77.637-29.494
		c6.072-7.807,10.844-13.012,13.88-15.18c3.903,0,9.542,2.602,16.481,7.807c6.939,3.47,10.41,6.506,10.41,9.108
		c-0.868,4.337-6.506,9.542-16.916,15.181c-7.807,2.169-22.12,13.446-43.373,34.265c8.675,9.542,13.012,16.481,13.012,19.951
		c0,3.036-2.603,10.41-7.807,22.121c-7.374,26.891-10.844,51.181-10.844,72.867c0,14.746,3.47,25.157,10.844,31.229
		c7.807,6.072,26.023,9.108,53.782,9.108c13.012,0,30.361-4.338,52.915-13.446c2.603-0.867,4.338-3.036,4.338-6.939
		c0-5.639-5.205-26.892-15.181-64.193c28.626,29.494,45.542,48.145,50.746,55.518c2.603,4.771,5.639,8.675,9.542,11.278
		c2.603,1.734,3.904,3.903,3.904,6.072c0,3.903-1.735,6.506-4.338,7.807c-4.337,0.868-10.843,3.904-19.518,9.108
		c-26.892,11.277-54.217,16.916-82.409,16.916c-35.132,0-58.12-4.771-69.396-13.88c-10.41-9.976-15.614-26.023-15.614-48.578
		c0-16.482,3.036-44.241,9.975-83.277c0-5.205-0.434-9.976-0.434-14.747c-8.674,9.108-17.349,18.65-26.891,28.626
		c-44.674,47.711-79.807,81.107-105.831,100.193c-22.988,15.614-36.867,23.421-41.204,23.421
		c39.469-34.265,78.071-72.433,115.372-114.939c33.832-37.301,50.747-57.252,50.747-59.855c0-0.868-1.301-1.735-3.47-1.735
		c-1.735,0-16.915,3.47-45.976,9.976c-23.421,4.771-38.602,6.94-45.542,6.94c-9.542,0-21.687-5.639-37.301-16.916
		C171.649,282.256,179.023,282.689,183.36,282.689z M364.659,141.293c11.277,6.94,16.916,11.711,16.916,14.313
		c0,6.072-6.506,10.41-18.65,12.145c-8.675,0-17.783,1.301-27.325,3.904c-41.638,10.843-68.963,16.048-81.107,16.048
		c-13.446,0-26.891-3.036-40.771-9.976c27.759-3.904,52.481-9.542,74.167-16.482c19.084-7.374,32.963-14.313,42.072-20.819
		c4.771-4.337,9.108-6.94,12.578-6.94C350.347,133.486,357.72,136.088,364.659,141.293z"/>
</g>
</svg>
