<?xml version="1.0" encoding="UTF-8" standalone="no"?>
<!-- Generator: Adobe Illustrator 16.0.0, SVG Export Plug-In . SVG Version: 6.00 Build 0)  -->

<svg
   xmlns:dc="http://purl.org/dc/elements/1.1/"
   xmlns:cc="http://creativecommons.org/ns#"
   xmlns:rdf="http://www.w3.org/1999/02/22-rdf-syntax-ns#"
   xmlns:svg="http://www.w3.org/2000/svg"
   xmlns="http://www.w3.org/2000/svg"
   xmlns:sodipodi="http://sodipodi.sourceforge.net/DTD/sodipodi-0.dtd"
   xmlns:inkscape="http://www.inkscape.org/namespaces/inkscape"
   version="1.1"
   id="svg2985"
   sodipodi:docname="Z0286.svg"
   inkscape:version="0.92.3 (2405546, 2018-03-11)"
   x="0px"
   y="0px"
   width="1000px"
   height="1000px"
   viewBox="0 0 1000 1000"
   enable-background="new 0 0 1000 1000"
   xml:space="preserve"><metadata
   id="metadata8"><rdf:RDF><cc:Work
       rdf:about=""><dc:format>image/svg+xml</dc:format><dc:type
         rdf:resource="http://purl.org/dc/dcmitype/StillImage" /></cc:Work></rdf:RDF></metadata><defs
   id="defs6" /><sodipodi:namedview
   pagecolor="#ffffff"
   bordercolor="#666666"
   borderopacity="1"
   objecttolerance="10"
   gridtolerance="10"
   guidetolerance="10"
   inkscape:pageopacity="0"
   inkscape:pageshadow="2"
   inkscape:window-width="1366"
   inkscape:window-height="705"
   id="namedview4"
   showgrid="false"
   inkscape:zoom="0.40409337"
   inkscape:cx="1030.8785"
   inkscape:cy="391.83602"
   inkscape:window-x="-8"
   inkscape:window-y="-8"
   inkscape:window-maximized="1"
   inkscape:current-layer="svg2985" />
<path
   id="path3004"
   d="M 331.30504,0.03599832 C 334.03734,19.168902 335.3965,47.854304 335.3965,86.118118 V 182.852 H 225.6514 c -49.91612,0.001 -89.5566,-3.91468 -118.95741,-11.71017 l 19.48794,46.77885 c 17.77701,-2.12577 50.92151,-3.55789 99.46947,-4.26648 H 335.3965 V 412.41594 H 135.39424 c -49.915121,0 -89.588576,-3.88478 -118.989387,-11.67926 l 19.487944,46.74695 c 17.778001,-2.12576 50.952477,-3.527 99.501443,-4.23559 h 205.1231 c -9.57408,24.80162 -22.56705,49.25243 -38.97589,73.34446 -21.88246,31.88651 -48.87476,62.70665 -81.01288,92.4664 -30.76897,29.05216 -63.60065,54.55339 -98.47008,76.52065 -34.188849,21.96626 -74.868682,43.2349 -122.04949335,63.78298 L 12.314384,770.60327 C 63.597657,748.639 105.66564,728.80149 138.48632,711.08676 c 30.76897,-20.54908 60.50557,-41.46691 89.2258,-62.72459 22.75393,-18.34159 43.25625,-36.28255 61.52494,-53.84779 22.77692,13.76118 40.99464,26.47592 54.59123,38.12031 16.43882,12.07192 31.14473,26.65132 44.16068,43.69533 13.69852,15.62384 22.27721,24.49764 25.70309,26.6284 3.42189,2.12876 7.19456,3.17719 11.30601,3.17719 13.69853,0 20.89507,-9.57143 21.58065,-28.7462 0,-4.25951 -1.72893,-8.53894 -5.15281,-12.80045 -2.05773,-4.2605 -5.13583,-8.85686 -9.24428,-13.82794 -5.48062,-4.9701 -13.71452,-10.6737 -24.67274,-17.06694 -12.33137,-7.09985 -28.42042,-15.97564 -48.28312,-26.6284 -16.49281,-8.84192 -35.13127,-17.65892 -55.87144,-26.50382 1.4631,-1.48794 2.9102,-2.9709 4.34131,-4.45385 21.19789,-24.09004 39.67546,-47.49241 55.40372,-70.16727 12.30839,-17.71672 24.25899,-38.59867 35.8838,-62.6927 H 620.5341 c 25.29735,39.68199 49.23354,72.98369 71.79958,99.91007 22.56205,26.9264 46.15045,50.99649 70.76922,72.25418 21.19389,22.67485 46.48923,44.6441 75.89105,65.90077 25.98292,19.8405 55.40372,36.49085 88.22641,49.95504 11.62182,-22.67585 35.87381,-34.00929 72.79894,-34.00929 v -17.00514 c -29.40378,-6.37432 -60.49654,-17.01112 -93.31724,-31.8915 -33.50727,-15.58995 -67.02753,-34.69296 -100.5318,-57.36781 -34.18985,-24.09203 -64.27424,-48.89465 -90.25717,-74.40285 -22.56604,-21.25868 -44.10471,-45.7075 -64.61602,-73.34446 h 325.14285 c 10.25566,9.9e-4 15.39647,-6.01753 15.39647,-18.06354 -0.002,-4.95913 -2.7453,-9.22661 -8.21392,-12.76956 -23.25161,-19.13091 -47.8494,-38.61761 -73.82932,-58.45711 l -49.25354,58.45711 H 672.84374 V 213.6532 h 221.55093 c 10.25566,0.001 15.3635,-6.01752 15.3655,-18.06354 -0.002,-4.96012 -2.71333,-9.22561 -8.18294,-12.76956 -23.25161,-19.1309 -47.87837,-38.6166 -73.86031,-58.4571 l -49.21954,58.4571 H 672.84374 V 69.113971 c 15.72428,-2.12477 30.07439,-6.391254 43.06636,-12.769553 8.8885,-2.83336 13.33374,-7.067952 13.33574,-12.737662 C 729.24384,37.229453 724.7976,31.912544 715.9101,27.661009 689.92517,17.033168 657.79206,9.232708 619.50174,4.2715874 c 2.73131,19.1319066 4.12245,47.8183056 4.12245,86.0821196 V 182.8201 H 384.64704 V 63.788092 c 17.09342,-1.416182 31.78933,-5.300964 44.09771,-11.679263 9.57208,-2.83336 14.36412,-7.099844 14.36611,-12.769554 -0.002,-6.377302 -4.79403,-11.694212 -14.36611,-15.945747 C 402.76083,12.765687 370.27692,4.997119 331.30504,0.03599832 Z M 384.64704,213.6532 H 623.62419 V 412.41494 H 384.64704 Z m 94.65943,258.15268 c 2.73831,19.17376 4.12046,47.57214 4.12246,85.21008 v 322.74591 c -0.002,17.04202 -3.42589,27.69278 -10.27465,31.95429 -5.48061,4.2605 -18.48957,6.41417 -39.03885,6.41616 -36.30454,-0.002 -77.40511,-5.32488 -123.29872,-15.97664 v 24.47972 c 28.7692,2.13075 54.78611,7.10682 78.0767,14.91824 20.54929,6.39026 34.94138,13.83991 43.16129,22.36192 4.10846,4.2605 6.84377,10.66172 8.21392,19.18473 l 2.06173,17.03601 c 10.95822,0 23.2756,-3.89871 36.97712,-11.71014 16.43684,-7.10184 29.13398,-16.32446 38.03947,-27.6868 10.27265,-12.07093 15.39448,-30.20124 15.39647,-54.34609 V 536.77284 c 17.12241,-1.41917 31.86129,-5.66772 44.19166,-12.76955 9.58807,-2.84134 14.36412,-7.4666 14.36611,-13.85885 -0.002,-5.68167 -4.77804,-10.65675 -14.36611,-14.91825 -26.03189,-10.65176 -58.58575,-18.44923 -97.6286,-23.42031 z m 206.06052,89.47657 c -4.79604,11.36234 -11.302,22.36192 -19.51892,33.01268 -8.22192,11.36234 -17.4602,22.73963 -27.73284,34.10297 -10.27465,11.36234 -21.93344,22.0121 -34.94739,31.95428 -12.33037,10.65176 -27.38306,21.65133 -45.19103,33.01268 l 13.33574,12.76856 c 15.06868,-5.67968 30.49713,-12.052 46.25238,-19.15384 15.75426,-6.39026 31.15073,-13.87081 46.22141,-22.39281 17.12441,-9.94317 32.89765,-19.86342 47.28375,-29.8046 13.69853,2.84134 24.63476,4.26549 32.85468,4.26649 13.69852,0 20.55028,-4.27844 20.55028,-12.80045 -9.9e-4,-9.94018 -26.36569,-31.58952 -79.10806,-64.96596 z M 446.42081,740.23659 c -44.52444,18.46317 -83.89808,33.01267 -118.14589,43.66444 -35.61997,12.07192 -68.14285,20.94672 -97.59563,26.6284 -30.82393,7.81142 -65.42052,14.21364 -103.7798,19.18472 27.39906,56.09914 43.4881,84.15169 48.28314,84.15169 4.10945,-0.001 9.60805,-12.80444 16.45881,-38.36946 27.39905,-7.09984 53.76374,-15.97564 79.10706,-26.62839 26.71347,-10.65176 54.80509,-22.69678 84.26087,-36.18987 28.08363,-12.7845 59.91494,-29.48568 95.5349,-50.07962 z m 157.21575,18.09443 -12.33637,12.80045 c 45.89261,18.46319 82.21713,34.78664 108.9326,48.98932 26.71248,13.4921 51.00145,29.11793 72.92389,46.87153 20.54829,18.46218 34.24882,29.11195 41.09957,31.95428 5.47862,2.12876 11.66878,3.20809 18.51955,3.20809 13.69852,0 20.86209,-10.30195 21.54967,-30.89489 -0.002,-4.2605 -2.38953,-8.53894 -7.18356,-12.80045 -3.42588,-4.97109 -8.54771,-9.94616 -15.39648,-14.91824 -8.90649,-6.39126 -22.60702,-13.1114 -41.09957,-20.21223 -17.81099,-7.81142 -43.1683,-17.41575 -76.04695,-28.77709 -32.19509,-12.78251 -69.18021,-24.85843 -110.96235,-36.22077 z"
   inkscape:connector-curvature="0"
   style="stroke-width:0.99799448" />
</svg>