<?xml version="1.0" encoding="utf-8"?>
<!-- Generator: Adobe Illustrator 16.0.3, SVG Export Plug-In . SVG Version: 6.00 Build 0)  -->
<!DOCTYPE svg PUBLIC "-//W3C//DTD SVG 1.1//EN" "http://www.w3.org/Graphics/SVG/1.1/DTD/svg11.dtd">
<svg version="1.1"
	 id="svg4" xmlns:dc="http://purl.org/dc/elements/1.1/" xmlns:cc="http://creativecommons.org/ns#" xmlns:rdf="http://www.w3.org/1999/02/22-rdf-syntax-ns#" xmlns:svg="http://www.w3.org/2000/svg" xmlns:sodipodi="http://sodipodi.sourceforge.net/DTD/sodipodi-0.dtd" xmlns:inkscape="http://www.inkscape.org/namespaces/inkscape" inkscape:version="0.92.4 (5da689c313, 2019-01-14)" sodipodi:docname="Z1077.svg"
	 xmlns="http://www.w3.org/2000/svg" xmlns:xlink="http://www.w3.org/1999/xlink" x="0px" y="0px" width="1000px" height="1000px"
	 viewBox="0 0 1000 1000" enable-background="new 0 0 1000 1000" xml:space="preserve">
<path id="path3764" inkscape:connector-curvature="0" sodipodi:nodetypes="cccccscscscssccsscscssccccccccccccscsccsccccccsscccccccscccccccsscccccccscscscsscccscscccccccccsccccccccccccccc" d="
	M-0.102,78.146l64.937,46.632h153.294l34.065-46.632c25.549,14.837,44.001,29.675,55.356,44.512
	c4.968,5.652,7.452,10.599,7.452,14.838c0,6.358-12.774,17.663-38.324,33.914v477.733c0,52.283,1.064,86.551,3.193,102.801
	c0.71,20.49,1.065,36.74,1.065,48.752c0,10.598-3.549,18.723-10.646,24.375c-9.226,4.239-16.678,6.359-22.355,6.359
	c-14.904,0-22.355-4.239-22.355-12.718v-46.632H55.254v46.632c0,8.479-6.742,12.718-20.226,12.718
	c-6.387,0-14.549-2.12-24.484-6.359c-7.097-5.652-10.646-13.777-10.646-24.375c0-12.012,1.064-28.262,3.194-48.752
	c3.548-16.25,5.322-50.518,5.322-102.801V149.153C8.414,121.598,5.576,97.929-0.102,78.146z M225.581,469.849H55.254
	c0,156.499,0,114.998,0,271.496h170.327C225.581,584.847,225.581,626.348,225.581,469.849z M55.254,440.175h170.327V153.392H55.254
	V440.175z M345.874,155.784c30.518,9.185,71.68,13.778,123.487,13.778h97.938V84.777c0-38.153-1.419-66.415-4.258-84.785
	c40.453,4.239,73.809,11.658,100.067,22.256c9.226,3.533,13.839,8.832,13.839,15.897c0,6.359-4.613,10.598-13.839,12.718
	c-13.484,6.359-28.388,10.245-44.711,11.658v107.041h58.55l46.84-46.632c23.42,16.25,45.065,32.501,64.938,48.751
	c5.677,2.826,8.516,6.359,8.516,10.598c0,10.598-4.612,15.897-13.839,15.897H618.397v166.39h71.324
	c7.097-5.652,13.13-12.011,18.098-19.077c43.291-48.751,79.131-96.442,107.519-143.074c25.549-35.327,49.324-79.132,71.324-131.417
	c31.227,14.837,57.131,28.615,77.712,41.333c7.807,6.359,11.71,11.305,11.71,14.837s-6.033,7.065-18.098,10.598
	c-15.613,3.533-29.807,5.299-42.582,5.299c-51.098,81.959-96.518,145.194-136.261,189.706
	c-9.936,12.011-19.517,22.609-28.743,31.794h118.164l51.099-55.11c25.549,18.37,49.679,36.74,72.389,55.11
	c5.678,3.533,8.517,7.418,8.517,11.658c0,12.011-3.903,18.017-11.71,18.017H720.594c-25.549,24.022-51.099,45.926-76.647,65.709
	c-41.872,35.326-88.712,67.827-140.52,97.502l12.774,9.538h314.04l34.065-46.632c25.549,16.251,44.355,31.441,56.421,45.572
	c5.678,5.652,8.517,10.598,8.517,14.837c0,6.359-12.775,17.311-38.324,32.854v200.304c0,52.284,0.71,86.552,2.129,102.802
	c1.42,20.489,2.13,36.74,2.13,48.751c0,10.599-3.903,18.724-11.71,24.376c-9.936,4.239-17.742,6.358-23.42,6.358
	c-13.484,0-20.227-4.239-20.227-12.718v-38.152H517.266c0.71,2.826,1.064,4.592,1.064,5.299c1.42,7.771,2.129,16.957,2.129,27.555
	c0,11.305-12.774,18.724-38.323,22.256c-12.064,0-18.097-4.239-18.097-12.718V579.708c-59.615,31.088-116.035,53.697-169.263,67.828
	l-9.581-15.897c78.066-31.088,136.616-57.583,175.649-79.485c46.13-26.143,86.229-54.051,120.294-83.726
	c25.549-19.076,52.872-43.805,81.97-74.187H426.779c-50.388,0.707-84.809,2.12-103.261,4.239l-20.226-46.631
	c30.517,8.479,71.679,12.718,123.486,12.718h140.52v-166.39h-97.938c-50.389,0.707-84.809,2.12-103.261,4.239L345.874,155.784z
	 M516.201,914.608h323.621V763.055H516.201V914.608z M516.201,732.32h323.621V596.665H516.201V732.32z"/>
</svg>
