<?xml version="1.0" encoding="utf-8"?>
<!-- Generator: Adobe Illustrator 16.0.0, SVG Export Plug-In . SVG Version: 6.00 Build 0)  -->
<!DOCTYPE svg PUBLIC "-//W3C//DTD SVG 1.1//EN" "http://www.w3.org/Graphics/SVG/1.1/DTD/svg11.dtd">
<svg version="1.1"
	 id="svg2985" xmlns:dc="http://purl.org/dc/elements/1.1/" xmlns:cc="http://creativecommons.org/ns#" xmlns:rdf="http://www.w3.org/1999/02/22-rdf-syntax-ns#" xmlns:svg="http://www.w3.org/2000/svg" xmlns:sodipodi="http://sodipodi.sourceforge.net/DTD/sodipodi-0.dtd" xmlns:inkscape="http://www.inkscape.org/namespaces/inkscape" inkscape:version="0.92.3 (2405546, 2018-03-11)" sodipodi:docname="Z1197.svg"
	 xmlns="http://www.w3.org/2000/svg" xmlns:xlink="http://www.w3.org/1999/xlink" x="0px" y="0px" width="1000px" height="1000px"
	 viewBox="0 0 1000 1000" enable-background="new 0 0 1000 1000" xml:space="preserve">
<sodipodi:namedview  borderopacity="1.0" bordercolor="#666666" pagecolor="#ffffff" showgrid="false" showguides="true" inkscape:cx="84.043825" inkscape:cy="540.52735" inkscape:zoom="0.50298375" id="base" inkscape:window-x="-8" inkscape:window-height="705" inkscape:window-y="-8" inkscape:window-width="1366" inkscape:current-layer="layer3" inkscape:pageshadow="2" inkscape:window-maximized="1" inkscape:pageopacity="0.0" inkscape:guide-bbox="true">
	<sodipodi:guide  orientation="horizontal" position="200" id="guide5596"></sodipodi:guide>
</sodipodi:namedview>
<path id="path3038" d="M415.935,67.696c-37.931,20.71-79.654,36.421-125.168,47.132c-27.586,9.285-57.241,16.069-88.964,20.353
	l-1.035,2.143v114.617h158.273l45.515-47.132c22.07,17.139,42.758,33.564,62.067,49.275c5.518,3.572,8.275,7.499,8.276,11.783
	c-0.001,10.712-4.483,16.069-13.448,16.068H200.768V431.9h596.887V281.934H656.967c-55.173,0-88.619,1.429-100.343,4.285
	l-16.552-42.847c27.583,5.714,66.551,8.57,116.895,8.569h140.688V110.544H656.967c-55.173,0.001-88.619,1.429-100.343,4.285
	l-16.552-42.847c27.583,6.428,66.551,9.642,116.895,9.641h132.412l32.068-47.132c24.826,14.998,43.104,29.995,54.828,44.99
	c5.517,5.714,8.275,10.713,8.276,14.998c-0.001,6.428-12.415,17.854-37.241,34.277v179.959c-0.001,52.846,0.691,87.48,2.069,103.904
	c0.69,20.71,1.033,37.493,1.034,50.345c-0.001,9.286-3.449,17.14-10.345,23.566c-9.655,4.285-17.243,6.429-22.758,6.429
	c-13.104,0-19.656-4.642-19.655-13.926v-16.069H200.768v16.069c0,9.284-6.552,13.926-19.654,13.926
	c-6.207,0-14.136-2.144-23.793-6.429c-6.898-6.427-10.347-14.28-10.347-23.566c0-12.852,1.034-29.634,3.104-50.345
	c3.448-16.424,5.172-51.059,5.172-103.904V133.039c0-27.851-2.757-52.487-8.275-73.912l63.104,47.132
	c38.62-12.139,75.515-28.207,110.688-48.204c29.654-16.424,52.066-35.705,67.238-57.844c34.482,18.568,61.725,35.707,81.723,51.417
	c6.207,3.572,9.311,7.499,9.311,11.783c0,7.856-4.483,12.497-13.449,13.926c-3.449,0-9.654-1.785-18.621-5.355
	C439.384,69.125,429.037,67.697,415.935,67.696z M285.403,566.869H120.835c-48.966,0.725-82.543,2.172-100.73,4.345L0.168,523.449
	c30.081,8.683,70.304,13.026,120.667,13.026h733.315l53.513-65.133c29.377,20.987,57.01,42.338,82.894,64.049
	c6.294,3.617,9.44,7.962,9.441,13.027c0,12.301-5.247,18.455-15.739,18.454H718.754V900.14c0,15.921,0.699,26.776,2.099,32.566
	c1.398,13.026,2.101,23.521,2.101,31.481c0,23.882-11.545,35.825-34.626,35.825c-16.09,0-24.132-5.791-24.132-17.369
	c0-15.922,0.697-35.823,2.099-59.706c1.397-25.329,2.099-47.402,2.099-66.219V566.873H335.768
	c-0.698,64.41-4.196,115.067-10.493,151.978c-6.995,39.08-18.538,72.732-34.624,100.956c-16.089,30.396-34.627,56.088-55.611,77.075
	c-25.183,23.88-50.018,43.782-74.5,59.705c-25.182,15.922-54.911,30.394-89.188,43.423l-12.593-17.369
	c28.68-14.475,53.513-28.225,74.499-41.251c18.887-13.751,36.725-28.587,53.513-44.508c15.39-18.093,30.78-37.995,46.168-59.706
	c12.592-18.094,23.084-39.804,31.479-65.133c6.995-24.606,12.241-52.831,15.739-84.674
	C283.654,658.418,285.402,618.254,285.403,566.869z"/>
</svg>
