<?xml version="1.0" encoding="utf-8"?>
<!-- Generator: Adobe Illustrator 16.0.0, SVG Export Plug-In . SVG Version: 6.00 Build 0)  -->
<!DOCTYPE svg PUBLIC "-//W3C//DTD SVG 1.1//EN" "http://www.w3.org/Graphics/SVG/1.1/DTD/svg11.dtd">
<svg version="1.1"
	 id="svg2985" xmlns:dc="http://purl.org/dc/elements/1.1/" xmlns:cc="http://creativecommons.org/ns#" xmlns:rdf="http://www.w3.org/1999/02/22-rdf-syntax-ns#" xmlns:svg="http://www.w3.org/2000/svg" xmlns:sodipodi="http://sodipodi.sourceforge.net/DTD/sodipodi-0.dtd" xmlns:inkscape="http://www.inkscape.org/namespaces/inkscape" inkscape:version="0.92.3 (2405546, 2018-03-11)" sodipodi:docname="Z1252.svg"
	 xmlns="http://www.w3.org/2000/svg" xmlns:xlink="http://www.w3.org/1999/xlink" x="0px" y="0px" width="1000px" height="1000px"
	 viewBox="0 0 1000 1000" enable-background="new 0 0 1000 1000" xml:space="preserve">
<sodipodi:namedview  borderopacity="1.0" bordercolor="#666666" pagecolor="#ffffff" showgrid="false" showguides="true" inkscape:cx="760.64623" inkscape:cy="612.87155" inkscape:zoom="0.53745013" id="base" inkscape:window-x="-8" inkscape:window-height="705" inkscape:window-y="-8" inkscape:window-width="1366" inkscape:current-layer="layer1" inkscape:pageshadow="2" inkscape:window-maximized="1" inkscape:pageopacity="0.0" inkscape:guide-bbox="true">
	<sodipodi:guide  inkscape:locked="false" orientation="horizontal" position="200" id="guide5596"></sodipodi:guide>
</sodipodi:namedview>
<path id="path3058" inkscape:connector-curvature="0" d="M837.446,346.049c-37.091,18.941-44.868,17.778-83.331,32.51
	c-12.363,4.21-24.384,8.069-36.06,11.576v99.829h135.997l49.452-58.929c27.473,20.345,53.23,39.987,77.271,58.929
	c6.18,3.508,9.271,8.068,9.272,13.68c0,11.226-5.152,16.837-15.454,16.836H731.448c42.846,99.052,70.619,141.931,118.482,218.968
	c25.413,37.882,50.484,70.502,75.212,97.862c24.725,24.554,47.734,42.091,69.027,52.613v17.889
	c-35.029,0-58.039,9.471-69.027,28.412c-23.354-21.748-44.303-48.054-62.848-78.922c-14.964-28.964-36.884-73.308-52.544-103.123
	c-40-80.394-60.704-119.57-91.695-200.023v345.416c-0.001,15.433,0.687,25.955,2.06,31.568c1.374,12.627,2.061,22.799,2.062,30.518
	c-0.001,23.148-10.991,34.725-32.971,34.725c-15.799,0-23.697-5.962-23.696-17.889c-0.001-14.733,0.688-33.673,2.06-56.823
	c0.687-24.555,1.029-45.948,1.03-64.189V590.982c-8.932,23.151-18.546,44.899-28.848,65.243
	c-21.293,47.703-45.333,91.549-72.12,131.535c-53.997,86.175-85.372,112.703-153.633,173.927l-12.363-17.89
	c75.264-77.283,100.009-116.439,145.391-204.443c21.979-37.882,40.867-78.571,56.666-122.064
	c13.049-34.375,23.354-66.645,30.908-96.811h-97.877c-48.081,0.001-80.705,1.054-97.875,3.157l-21.637-46.301
	c30.223,8.418,70.061,12.628,119.513,12.628h131.876v-86.149c-20.606,5.612-40.182,10.523-58.727,14.732
	c-41.212,7.718-67.069,12.031-129.571,16.94l-4.122-22.097c72.294-8.771,118.346-19.094,182.117-43.25
	c35.029-11.924,64.907-23.851,89.635-35.777c9.153-4.215,22.775-14.508,30.787-20.83c13.735-11.224,26.101-20.448,37.091-31.673
	c25.413,16.136,47.393,31.57,65.939,46.3c3.433,2.807,5.15,5.612,5.151,8.417c-0.001,9.12-4.466,13.681-13.395,13.68
	C863.889,350.26,851.868,348.856,837.446,346.049L837.446,346.049z M-0.033,134.645c29.535,7.717,69.028,11.576,118.482,11.576
	h78.302V84.135c0-37.881-1.03-65.942-3.092-84.183c38.463,4.21,70.745,11.577,96.846,22.099c8.93,4.21,13.394,9.471,13.394,15.784
	c0,6.314-4.464,10.523-13.394,12.627c-12.363,6.314-27.131,10.173-44.301,11.576v84.182h104.06l49.451-53.667
	c24.039,18.942,47.049,37.181,69.029,54.719c5.493,3.508,8.241,7.366,8.242,11.576c-0.001,11.926-4.122,17.889-12.363,17.889
	H246.205v104.175h90.665l33.998-46.3c24.727,16.136,42.585,31.218,53.574,45.249c4.809,4.912,7.213,9.471,7.213,13.68
	c0,7.016-12.02,18.24-36.061,33.673v123.117c0,51.913,0.687,85.937,2.061,102.071c1.373,20.345,2.059,36.479,2.059,48.406
	c0,10.522-3.776,18.591-11.331,24.202c-9.616,4.21-16.829,6.314-21.637,6.313c-14.425,0.001-21.636-4.209-21.636-12.627V596.6
	h-98.908v148.372h82.421l45.333-51.563c24.037,18.241,46.362,35.777,66.968,52.613c5.493,3.508,8.242,7.367,8.242,11.576
	c0,10.522-4.465,15.783-13.394,15.783H246.205v129.431c-0.001,16.837,0.688,27.711,2.06,32.621
	c1.374,11.925,2.06,22.098,2.061,30.517c-0.001,22.447-10.648,33.673-31.941,33.673c-16.482,0-24.726-5.261-24.726-15.784
	c0-15.433,0.342-34.726,1.029-57.876c1.375-24.553,2.061-46.3,2.061-65.242v-87.34h-78.302c-48.08,0.703-81.049,2.104-98.907,4.21
	l-19.575-46.299c29.535,9.118,69.028,13.68,118.482,13.678h78.302V596.597H98.874v17.89c0,6.313-4.121,11.226-12.363,14.732
	c-10.99,3.508-19.233,5.261-24.727,5.261c-8.243,0-12.365-3.858-12.364-11.576V247.239l60.787,33.673h86.544V176.736h-78.302
	c-48.08,0.702-81.049,2.105-98.907,4.209L-0.033,134.645z M98.874,568.186h246.238V453.486H98.874V568.186z M98.874,424.021h246.238
	V311.429H98.874V424.021z M695.408-0.048c32.281,5.613,59.754,12.979,82.421,22.099c5.494,1.403,8.243,5.262,8.244,11.575
	c-0.001,6.314-6.183,11.225-18.546,14.732c-6.182,1.404-11.333,2.456-15.454,3.157c13.735,32.27,29.534,61.034,47.394,86.287
	c17.857,28.764,38.807,56.123,62.848,82.079c24.038,25.255,48.422,46.652,73.148,64.189c22.667,16.136,44.301,27.71,64.908,34.726
	v16.836c-37.091,0.001-61.474,11.225-73.15,33.673c-21.98-14.732-41.556-32.62-58.725-53.666
	c-19.234-23.15-36.061-47.352-50.484-72.607c-15.798-23.15-31.253-49.106-46.362-77.869
	c-14.425-28.761-29.536-64.188-45.333-106.281c-10.304,26.659-21.637,50.16-33.999,70.504
	c-16.483,25.957-35.028,51.563-55.636,76.816c-22.668,26.659-43.615,49.458-62.847,68.399
	c-20.606,21.046-42.586,39.987-65.938,56.823c-25.414,21.046-52.202,39.636-80.363,55.771l-15.453-22.098
	c33.655-21.045,63.189-42.792,88.603-65.242c23.354-23.15,47.05-48.054,71.091-74.712c23.354-28.761,43.959-56.471,61.816-83.13
	c16.483-24.552,29.535-48.755,39.15-72.607C681.67,49.761,689.225,26.61,695.408-0.048z"/>
</svg>
