<?xml version="1.0" encoding="utf-8"?>
<!-- Generator: Adobe Illustrator 16.0.0, SVG Export Plug-In . SVG Version: 6.00 Build 0)  -->
<!DOCTYPE svg PUBLIC "-//W3C//DTD SVG 1.1//EN" "http://www.w3.org/Graphics/SVG/1.1/DTD/svg11.dtd">
<svg version="1.1"
	 id="svg2985" xmlns:svg="http://www.w3.org/2000/svg" xmlns:rdf="http://www.w3.org/1999/02/22-rdf-syntax-ns#" xmlns:dc="http://purl.org/dc/elements/1.1/" xmlns:inkscape="http://www.inkscape.org/namespaces/inkscape" xmlns:sodipodi="http://sodipodi.sourceforge.net/DTD/sodipodi-0.dtd" xmlns:cc="http://creativecommons.org/ns#" inkscape:version="0.92.3 (2405546, 2018-03-11)" sodipodi:docname="Z1285.svg"
	 xmlns="http://www.w3.org/2000/svg" xmlns:xlink="http://www.w3.org/1999/xlink" x="0px" y="0px" width="1000px" height="1000px"
	 viewBox="0 0 1000 1000" enable-background="new 0 0 1000 1000" xml:space="preserve">
<sodipodi:namedview  inkscape:window-x="-8" inkscape:window-height="705" inkscape:window-width="1366" inkscape:pageshadow="2" inkscape:pageopacity="0.0" inkscape:guide-bbox="true" inkscape:window-y="-8" inkscape:current-layer="layer5" inkscape:window-maximized="1" pagecolor="#ffffff" borderopacity="1.0" bordercolor="#666666" inkscape:cy="518.73855" inkscape:cx="410.71253" showguides="true" showgrid="false" id="base" inkscape:zoom="0.48613591">
	<sodipodi:guide  orientation="horizontal" position="544,296" id="guide5596" inkscape:locked="false"></sodipodi:guide>
</sodipodi:namedview>
<path id="path3140" d="M116.71,608.544l65.597,47.411h63.669v-20.473c0-38.792-1.434-67.529-4.301-86.208
	c34.41,4.311,63.085,11.854,86.028,22.629c8.602,4.311,12.903,9.699,12.903,16.164c0,6.466-3.587,10.776-10.753,12.931
	c-10.037,6.466-20.79,10.417-32.26,11.854v43.102h90.552l29.034-38.793c25.807,16.523,44.446,31.969,55.919,46.337
	c5.018,5.747,7.524,10.775,7.525,15.086c-0.001,6.466-14.339,17.601-43.013,33.405v143.319
	c-0.001,23.705-4.661,42.023-13.979,54.955c-14.14,17.52-18.532,31.298-39.929,31.643c-0.001-17.241-3.944-28.81-11.829-35.275
	c-7.038-16.027-47.067-17.704-61.35-18.851v-19.861c33.884,1.002,56.869,18.512,74.397-6.146c3.583-3.593,5.376-13.291,5.377-29.096
	V694.751l-2.151-7.543h-90.552v291.716c-0.001,15.086-10.396,22.629-31.185,22.629c-16.489,0-24.733-8.979-24.732-26.939
	c-0.001-8.621,0.718-20.115,2.152-34.482c1.434-14.367,2.15-26.939,2.15-37.714V687.208h-72.271V931.82
	c0,9.339-7.526,14.009-22.583,14.009c-5.733,0-13.263-2.155-22.582-6.466c-7.886-6.466-11.83-14.368-11.83-23.707
	c0-12.931,1.075-29.812,3.227-50.645c4.301-16.523,6.453-51.365,6.453-104.526v-77.588
	C126.388,654.881,123.161,630.096,116.71,608.544L116.71,608.544z M223.183,2.567c39.468,4.193,72.011,11.53,97.631,22.01
	c9.001,3.495,13.501,8.735,13.501,15.722c-0.002,6.29-4.5,10.481-13.501,12.577c-13.156,6.29-27.697,10.132-43.621,11.529v50.309
	h73.742l45.699-46.116c22.156,16.77,43.273,32.841,63.355,48.212c4.847,3.494,7.271,7.337,7.271,11.529
	c0,10.481-3.81,15.723-11.426,15.723H277.192v72.318h148.521l30.12-33.539c22.852,15.373,43.622,32.492,62.317,51.356
	c2.079,2.098,3.115,4.193,3.116,6.289c-0.001,5.59-6.578,10.132-19.733,13.625c-12.465,2.796-23.888,5.591-34.275,8.385
	c-6.922,9.084-15.579,18.517-25.965,28.298c-10.387,11.181-20.773,21.311-31.159,30.395l-17.656-12.577
	c9.001-11.878,16.27-23.058,21.811-33.539c4.847-10.48,8.655-20.612,11.425-30.395H247.072c11.771,2.796,22.157,5.241,31.158,7.337
	c9.691,2.795,14.541,7.687,14.541,14.673c0,6.29-5.193,11.181-15.579,14.673c-11.771,3.494-17.659,8.036-17.659,13.625v71.271
	l68.55-10.481l28.044-42.972l61.279,37.731c2.77,2.097,4.154,4.891,4.154,8.385c0,5.59-3.811,9.434-11.427,11.529l-150.601,27.25
	v64.982c0,11.879,32.89,17.819,98.67,17.819c24.235,0,56.779-1.746,97.63-5.241c18.003,1.397,27.351,10.132,28.045,26.204
	c-2.079,9.782-12.117,16.071-30.12,18.865c-29.082,4.191-60.933,6.289-95.553,6.289c-54.007,0-90.707-4.541-110.094-13.624
	c-22.851-11.179-34.274-25.153-34.274-41.924v-64.983l-32.197,6.288l-17.657,8.385l-28.044-37.732l32.197-4.192l45.699-6.289
	V244.677h-95.552v222.196c-0.001,52.404-1.731,101.665-5.193,147.781c-1.385,40.526-4.85,81.751-10.389,123.675
	c-4.847,34.237-11.425,65.331-19.731,93.28c-7.619,25.853-16.62,50.658-27.007,74.415c-10.386,21.66-23.886,42.622-40.506,62.886
	l-12.464-8.387c9.002-17.469,16.618-37.383,22.85-59.742c6.234-19.564,11.771-40.177,16.62-61.837
	c5.537-23.757,10.04-51.706,13.5-83.848c4.154-37.731,7.272-75.813,9.348-114.242c2.079-51.706,3.116-109.7,3.116-173.983
	c0.692-120.182-0.347-216.256-3.116-288.226l57.125,37.731h104.902V86.414C227.337,48.685,225.952,20.735,223.183,2.567z
	 M858.821,148.252l37.391-57.646l72.703,48.212c3.464,2.796,5.193,5.94,5.194,9.433c-0.001,6.29-4.154,10.481-12.464,12.577
	l-262.772,40.875c9.001,32.841,19.733,60.441,32.197,82.799c6.231,13.276,12.463,24.107,18.695,32.491
	c4.847-2.793,8.654-5.589,11.425-8.385c19.387-18.167,34.62-34.936,45.699-50.308c10.386-16.072,19.041-31.442,25.966-46.116
	c31.158,11.879,55.393,22.71,72.704,32.491c6.923,3.494,10.385,9.434,10.386,17.818c-0.001,10.481-15.233,15.722-45.699,15.721
	c-21.465,24.456-42.585,44.719-63.356,60.789c-8.31,6.988-16.272,12.578-23.888,16.77c19.387,18.167,43.967,34.937,73.743,50.309
	c14.539,6.988,26.31,10.481,35.313,10.481c6.232,0,11.426-2.794,15.58-8.385c4.847-9.083,21.465-45.417,49.853-109.001l16.619,9.433
	c-11.08,53.104-16.62,81.053-16.619,83.848c-0.001,11.879,3.808,21.312,11.425,28.299c12.465,9.782,18.694,19.914,18.695,30.395
	c-0.001,16.073-18.004,24.106-54.007,24.106c-20.082,0-46.396-6.638-78.938-19.914c-31.16-10.48-59.896-27.949-86.206-52.405
	c-8.308-7.686-16.271-16.071-23.887-25.154c-2.08,1.398-3.809,2.446-5.193,3.144c-26.313,14.673-58.165,28.648-95.553,41.924
	c-35.314,13.976-73.397,24.806-114.249,32.491l-16.62-12.577c43.622-13.975,81.358-28.647,113.211-44.02
	c28.39-14.673,52.622-28.648,72.705-41.924c7.616-4.192,13.848-8.734,18.693-13.625c-6.923-8.384-12.811-16.769-17.657-25.154
	c-15.926-29.346-31.159-64.632-45.699-105.857l-1.038-3.144l-83.09,13.625l-31.161,10.48l-29.079-38.779l54.007-6.289l81.013-10.48
	c-7.617-27.949-13.156-52.754-16.617-74.415c-6.232-34.935-11.426-67.077-15.58-96.424c72.703,7.687,109.056,15.722,109.056,24.106
	c0,9.084-16.618,18.867-49.854,29.347c3.463,43.322,9.693,80.354,18.695,111.098L858.821,148.252z M749.765,18.289
	c26.31,10.481,47.428,21.313,63.356,32.491c13.155,8.386,23.195,16.771,30.12,25.154c4.846,6.29,7.27,12.578,7.271,18.866
	c-0.001,22.36-7.271,33.54-21.812,33.539c-3.463,0.001-6.925-1.047-10.386-3.144c-2.771-2.096-5.887-6.987-9.348-14.673
	c-9.693-16.071-19.389-29.695-29.08-40.876c-9.694-10.479-23.889-21.66-42.585-33.539L749.765,18.289z M854.666,588.451
	l37.391-57.645l72.705,48.212c3.461,2.795,5.192,6.29,5.193,10.481c-0.001,5.589-4.155,9.433-12.466,11.528l-271.08,40.876
	c2.078,7.687,4.153,15.371,6.232,23.059c9.692,43.321,22.502,78.956,38.429,106.905c7.616,16.77,15.579,30.744,23.889,41.923
	c9.692-9.085,18.002-18.518,24.927-28.3c21.462-24.453,38.08-47.514,49.853-69.174c11.77-21.661,21.466-43.321,29.081-64.982
	c33.928,14.674,59.893,27.602,77.896,38.779c9.001,4.892,13.502,11.879,13.503,20.962c-0.001,8.387-18.004,12.577-54.009,12.577
	c-22.851,34.937-46.045,64.982-69.586,90.138c-13.156,13.274-26.313,25.502-39.468,36.684c21.463,20.962,47.776,39.479,78.936,55.55
	c16.619,8.384,29.429,12.575,38.43,12.577c6.231-0.002,11.424-3.494,15.58-10.482c5.538-9.782,23.541-50.659,54.008-122.628
	l17.657,9.433c-14.542,62.886-21.813,96.075-21.812,99.571c-0.001,11.878,3.808,21.312,11.425,28.299
	c11.771,9.781,17.655,19.563,17.657,29.347c0,17.47-17.658,26.202-52.971,26.202c-21.464,0-49.162-7.687-83.09-23.059
	c-32.544-11.878-63.011-31.094-91.398-57.646c-6.925-6.29-13.503-12.926-19.734-19.914c-29.082,20.962-62.318,41.225-99.708,60.79
	c-37.393,20.264-78.243,36.333-122.558,48.213l-16.619-17.817c47.083-18.169,87.59-38.083,121.519-59.743
	c30.466-19.565,57.124-38.78,79.974-57.646c4.153-3.494,7.616-6.29,10.387-8.385c-8.31-11.879-16.272-23.757-23.889-35.636
	c-17.311-32.142-33.583-70.921-48.813-116.338c-4.85-15.371-8.657-29.696-11.427-42.971l-96.592,14.672l-34.272,10.481
	l-30.12-37.732l59.199-7.337l94.518-11.529c-3.463-16.071-6.232-30.395-8.31-42.972c-6.923-39.129-12.464-74.763-16.618-106.904
	c72.703,9.084,109.055,17.817,109.056,26.202c-0.001,7.687-16.618,17.12-49.852,28.3c2.768,33.538,6.921,63.234,12.463,89.088
	L854.666,588.451z M759.111,471.065c22.156,8.387,40.161,16.771,54.009,25.154c11.77,6.288,20.425,12.927,25.966,19.913
	c4.846,4.193,7.271,9.084,7.271,14.674c0,21.66-8.656,32.491-25.965,32.49c-2.77,0.001-5.539-0.698-8.309-2.096
	c-2.771-1.397-5.54-5.24-8.309-11.529c-7.617-13.275-15.234-24.455-22.85-33.539c-8.311-9.083-20.081-18.166-35.313-27.25
	L759.111,471.065z"/>
</svg>
