<?xml version="1.0" encoding="utf-8"?>
<!-- Generator: Adobe Illustrator 16.0.0, SVG Export Plug-In . SVG Version: 6.00 Build 0)  -->
<!DOCTYPE svg PUBLIC "-//W3C//DTD SVG 1.1//EN" "http://www.w3.org/Graphics/SVG/1.1/DTD/svg11.dtd">
<svg version="1.1"
	 id="svg2985" xmlns:dc="http://purl.org/dc/elements/1.1/" xmlns:cc="http://creativecommons.org/ns#" xmlns:rdf="http://www.w3.org/1999/02/22-rdf-syntax-ns#" xmlns:svg="http://www.w3.org/2000/svg" xmlns:sodipodi="http://sodipodi.sourceforge.net/DTD/sodipodi-0.dtd" xmlns:inkscape="http://www.inkscape.org/namespaces/inkscape" inkscape:version="0.92.3 (2405546, 2018-03-11)" sodipodi:docname="Z1280.svg"
	 xmlns="http://www.w3.org/2000/svg" xmlns:xlink="http://www.w3.org/1999/xlink" x="0px" y="0px" width="1000px" height="1000px"
	 viewBox="0 0 1000 1000" enable-background="new 0 0 1000 1000" xml:space="preserve">
<sodipodi:namedview  borderopacity="1.0" bordercolor="#666666" pagecolor="#ffffff" showgrid="false" showguides="true" inkscape:cx="423.18779" inkscape:cy="523.50509" inkscape:zoom="0.45207843" id="base" inkscape:window-x="-8" inkscape:window-height="705" inkscape:window-y="-8" inkscape:window-width="1366" inkscape:current-layer="layer1" inkscape:pageshadow="2" inkscape:window-maximized="1" inkscape:pageopacity="0.0" inkscape:guide-bbox="true">
	</sodipodi:namedview>
<path id="path3052" d="M463.809,2.59c2.768,18.359,4.152,46.604,4.154,84.732v79.436H182.524
	c-50.515,0.001-90.995-4.237-121.441-12.711l21.797,46.604c17.298-2.117,50.514-3.529,99.645-4.236h285.438v134.305
	c-13.891-0.019-64.298,0.059-263.814,0.352c-49.944,0-89.829-3.888-119.656-11.664l19.77,46.648
	c18.034-2.12,51.33-3.533,99.887-4.24h263.814v132.217H124.397c-50.515,0.001-90.648-4.588-120.402-13.768l19.721,46.602
	c17.991-2.118,51.551-3.529,100.682-4.236h293.742c-12.456,33.188-29.755,67.432-51.896,102.736
	c-26.297,40.249-59.165,79.085-98.607,116.508c-37.367,36.011-77.502,67.784-120.404,95.322
	c-40.134,26.831-89.263,53.31-147.389,79.436l11.42,20.123c60.893-26.126,110.716-50.485,149.467-73.08
	c37.365-24.008,73.349-49.428,107.947-76.26c35.982-30.361,67.466-60.369,94.453-90.025c26.295-30.362,48.437-59.313,66.43-86.852
	c13.838-20.477,26.64-43.776,38.404-69.902v320.924c-0.002,18.358-0.692,39.894-2.076,64.607c-1.386,23.3-2.076,42.365-2.076,57.193
	c0,12.004,8.649,18.006,25.949,18.006c22.142,0,33.213-11.65,33.215-34.953c-0.002-7.766-0.692-18.005-2.076-30.715
	c-1.386-5.648-2.076-16.239-2.076-31.773v-371.76c32.521,52.957,64.008,97.088,94.455,132.393
	c29.754,36.011,60.547,68.491,92.379,97.441c27.677,31.068,60.892,59.666,99.643,85.791c33.905,26.833,72.656,49.779,116.252,68.844
	c11.07-20.477,34.251-30.713,69.543-30.713v-15.889c-36.677-9.885-76.119-24.712-118.328-44.482
	c-43.597-22.596-86.844-50.133-129.744-82.613c-43.596-33.187-82.002-67.434-115.215-102.738
	c-32.524-33.893-62.278-73.081-89.264-117.564h444.246c11.07,0,16.607-5.297,16.607-15.889c-0.002-4.942-3.115-9.178-9.342-12.709
	c-24.22-19.77-50.17-39.894-77.848-60.371l-49.822,60.371H518.821V361.814h373.092c10.404,0.001,15.605-5.653,15.607-16.963
	c-0.002-5.654-2.776-10.248-8.324-13.783c-24.973-19.083-51.332-38.521-79.076-58.313l-49.945,58.313
	c-140.836,0-212.924-0.047-251.354-0.107V196.416h406.881c10.378,0.001,15.566-5.295,15.568-15.887
	c-0.002-4.943-2.769-9.532-8.303-13.77c-23.528-19.064-48.439-38.834-74.734-59.313l-49.82,59.313h-289.59V65.082
	c15.914-1.412,30.444-5.296,43.594-11.652c9.687-2.117,14.529-6.353,14.531-12.709c-0.002-7.061-4.845-12.357-14.531-15.889
	C536.812,14.947,503.942,7.534,463.809,2.59z"/>
</svg>
