<?xml version="1.0" encoding="utf-8"?>
<!-- Generator: Adobe Illustrator 16.0.0, SVG Export Plug-In . SVG Version: 6.00 Build 0)  -->
<!DOCTYPE svg PUBLIC "-//W3C//DTD SVG 1.1//EN" "http://www.w3.org/Graphics/SVG/1.1/DTD/svg11.dtd">
<svg version="1.1"
	 id="svg2985" xmlns:dc="http://purl.org/dc/elements/1.1/" xmlns:cc="http://creativecommons.org/ns#" xmlns:rdf="http://www.w3.org/1999/02/22-rdf-syntax-ns#" xmlns:svg="http://www.w3.org/2000/svg" xmlns:sodipodi="http://sodipodi.sourceforge.net/DTD/sodipodi-0.dtd" xmlns:inkscape="http://www.inkscape.org/namespaces/inkscape" sodipodi:docname="Z1327.svg" inkscape:version="0.92.3 (2405546, 2018-03-11)"
	 xmlns="http://www.w3.org/2000/svg" xmlns:xlink="http://www.w3.org/1999/xlink" x="0px" y="0px" width="1000px" height="1000px"
	 viewBox="0 0 1000 1000" enable-background="new 0 0 1000 1000" xml:space="preserve">
<sodipodi:namedview  inkscape:zoom="0.46032958" inkscape:cy="468.04639" inkscape:cx="804.27938" showguides="true" showgrid="false" pagecolor="#ffffff" borderopacity="1.0" bordercolor="#666666" id="base" inkscape:snap-text-baseline="true" inkscape:guide-bbox="true" inkscape:pageopacity="0.0" inkscape:window-maximized="1" inkscape:pageshadow="2" inkscape:current-layer="svg2985" inkscape:window-width="1366" inkscape:window-y="-8" inkscape:window-height="705" inkscape:window-x="-8">
	</sodipodi:namedview>
<path id="path21" d="M181.801,504.262l65.458,47.181h493.842l33.82-47.181c26.184,15.012,45.457,30.024,57.821,45.036
	c5.818,5.719,8.728,10.365,8.728,13.939c0,7.149-13.092,18.944-39.274,35.386v212.965c0,52.899,0.728,87.57,2.182,104.012
	c0.728,20.731,1.091,37.173,1.091,49.326c0,10.008-3.637,18.229-10.909,24.662c-9.455,4.289-17.456,6.435-24.002,6.435
	c-13.818,0-20.729-4.647-20.729-13.94V953.13H238.531v34.313c0,8.578-7.637,12.868-22.91,12.868c-5.818,0-13.455-2.146-22.91-6.435
	c-7.273-5.719-10.909-13.939-10.909-24.662c0-12.152,0.727-28.595,2.182-49.325c4.363-16.442,6.546-51.113,6.546-104.013V576.105
	C190.529,548.226,187.619,524.277,181.801,504.262z M238.531,922.034h511.299V767.299H238.531V922.034z M238.531,737.274h511.299
	v-156.88H238.531V737.274z M-0.022,78.407l73.044,46.617h376.461v-40.13c0-38.141-1.651-66.393-4.952-84.757
	c47.046,4.238,86.25,11.654,117.614,22.249c11.555,3.532,17.332,8.829,17.332,15.893c0,6.356-5.777,10.594-17.332,12.713
	c-14.857,6.357-32.603,10.242-53.236,11.654v62.379h377.508l38.379-46.617c29.713,16.245,51.585,31.431,65.616,45.557
	c6.603,4.944,9.904,9.535,9.904,13.773c0,7.063-14.856,18.364-44.569,33.903v117.471c0,52.974,0.825,107.583,2.476,123.828
	c1.651,20.483,2.477,37.082,2.477,49.795c0,9.182-4.54,16.951-13.618,23.309c-11.556,3.531-20.635,5.297-27.237,5.297
	c-15.682,0-23.522-4.237-23.522-12.714v-20.13H63.117v20.13c0,8.477-7.841,12.714-23.522,12.714c-7.429,0-16.92-1.766-28.475-5.297
	c-7.429-6.357-11.143-14.127-11.143-23.309c0-12.714,0.825-29.313,2.476-49.795c4.952-16.245,7.429-70.854,7.429-123.828V151.511
	C9.882,123.964,6.58,99.597-0.022,78.407z M63.117,428.832h386.365V311.361H63.117V428.832z M508.908,428.832h387.412V311.361
	H508.908V428.832z M63.117,280.636h386.365V155.749H63.117V280.636z M508.908,155.749v124.888h387.412V155.749H508.908z"/>
</svg>
