<?xml version="1.0" encoding="utf-8"?>
<!-- Generator: Adobe Illustrator 16.0.3, SVG Export Plug-In . SVG Version: 6.00 Build 0)  -->
<!DOCTYPE svg PUBLIC "-//W3C//DTD SVG 1.1//EN" "http://www.w3.org/Graphics/SVG/1.1/DTD/svg11.dtd">
<svg version="1.1"
	 id="svg4" xmlns:dc="http://purl.org/dc/elements/1.1/" xmlns:cc="http://creativecommons.org/ns#" xmlns:rdf="http://www.w3.org/1999/02/22-rdf-syntax-ns#" xmlns:svg="http://www.w3.org/2000/svg" xmlns:sodipodi="http://sodipodi.sourceforge.net/DTD/sodipodi-0.dtd" xmlns:inkscape="http://www.inkscape.org/namespaces/inkscape" inkscape:version="0.92.4 (5da689c313, 2019-01-14)" sodipodi:docname="Z1329.svg"
	 xmlns="http://www.w3.org/2000/svg" xmlns:xlink="http://www.w3.org/1999/xlink" x="0px" y="0px" width="1000px" height="1000px"
	 viewBox="0 0 1000 1000" enable-background="new 0 0 1000 1000" xml:space="preserve">
<sodipodi:namedview  inkscape:cy="509.35752" inkscape:cx="519.60784" inkscape:zoom="0.48" showguides="true" showgrid="false" guidetolerance="10" gridtolerance="10" objecttolerance="10" borderopacity="1" pagecolor="#ffffff" bordercolor="#666666" id="namedview6" inkscape:current-layer="svg4" inkscape:window-maximized="1" inkscape:window-y="-8" inkscape:window-x="-8" inkscape:guide-bbox="true" inkscape:window-height="705" inkscape:window-width="1366" inkscape:pageshadow="2" inkscape:pageopacity="0">
	</sodipodi:namedview>
<path id="path3731" d="M244.266,186.502c-11.261,18.056-21.113,31.944-29.559,41.666c-7.038,9.028-24.635,25.346-52.787,48.957
	c-4.223,4.167-11.26,10.417-21.113,18.75c11.965,6.944,20.762,12.153,26.393,15.625c14.78,8.333,23.577,13.542,26.393,15.625
	c18.299,11.806,33.079,24.652,44.34,38.541c15.484,18.056,27.801,26.737,36.951,26.043c16.892,0,23.929-8.682,21.113-26.043
	c-2.111-18.056-20.059-34.374-53.842-48.957c-19.707-8.333-40.82-16.32-63.342-23.959c33.783-15.277,63.342-32.638,88.68-52.082
	l23.225,1.041c12.669-0.694,19.707-3.125,21.115-7.291c2.815-6.944-1.407-13.194-12.668-18.75L244.266,186.502z M472.535,187.543
	c-30.264,46.527-65.103,82.986-104.516,109.375c52.082,29.167,85.162,52.082,99.238,68.748
	c13.372,16.667,22.873,25.695,28.504,27.084c7.038,2.778,13.725,1.736,20.059-3.125c5.631-4.861,8.796-10.765,9.5-17.709
	c2.815-22.222-24.633-43.749-82.346-64.582c-15.484-5.556-27.447-9.722-35.893-12.5c33.783-13.889,63.693-31.249,89.734-52.082
	h22.17c12.668,0,19.707-2.083,21.115-6.25c2.815-5.556-1.407-11.806-12.668-18.75L472.535,187.543z M693.414,190.668
	c-10.558,23.611-20.059,41.319-28.504,53.125c-5.631,9.028-22.521,28.82-50.674,59.375c52.082,27.777,85.863,48.958,101.348,63.541
	c18.299,18.056,32.375,26.735,42.229,26.041c14.78,0,21.466-8.333,20.059-25c-2.111-18.056-22.17-34.027-60.176-47.916
	c-15.484-5.556-38.005-13.194-67.564-22.916c17.595-9.722,35.543-20.834,53.842-33.334c4.223-2.778,10.205-6.598,17.947-11.459
	l30.615-1.041c9.149-0.694,14.428-3.819,15.836-9.375c1.407-4.861-2.816-10.069-12.67-15.625L693.414,190.668z M520.98,630.248
	h259.707v5.209c0,9.027,7.039,13.541,21.115,13.541c23.93-1.389,35.188-11.806,33.781-31.25
	c-2.815-29.166-4.223-53.125-4.223-71.875v-88.541c26.744-11.806,40.47-22.569,41.174-32.291c0-7.639-7.039-15.972-21.115-25
	l-44.34-28.125L776.465,411.5H215.879l-62.287-35.416c3.519,27.777,5.279,54.513,5.279,80.207v55.207l-2.111,39.584l-1.057,41.666
	l-3.168,29.166c-1.408,20.833,8.446,31.25,29.561,31.25c18.299,0,27.449-6.25,27.449-18.75v-4.166h258.65 M209.545,440.666h258.65
	v64.582h-258.65V440.666z M520.98,440.666h259.707v64.582H520.98V440.666z M209.545,534.416h258.65v66.666h-258.65V534.416z
	 M520.98,534.416h259.707v66.666H520.98V534.416z M439.898-0.129l-17.816,11.713c12.576,11.358,22.358,21.652,29.346,30.881
	c6.986,8.519,13.624,18.456,19.912,29.814c6.288,9.938,10.83,20.232,13.625,30.881c2.096,9.229,4.891,14.551,8.385,15.971H125.484
	V62.695h-13.623c-1.397,29.105-4.543,52.178-9.434,69.215c-5.59,17.747-12.925,33.718-22.008,47.916
	c-9.083,14.908-23.407,32.655-42.971,53.242c-9.083,8.519-13.625,15.973-13.625,22.361c0,11.358,8.733,17.037,26.201,17.037
	c4.192,0,9.432-1.42,15.721-4.26c6.987-2.84,13.625-7.808,19.914-14.906c7.686-7.809,13.972-17.394,18.863-28.752
	c6.288-14.198,11.18-30.88,14.674-50.047c1.397-9.229,2.794-18.101,4.191-26.619H884.27v4.258
	c-5.59,13.488-13.625,26.977-24.105,40.465c-9.782,14.908-23.058,29.815-39.826,44.723l17.818,12.777
	c16.07-12.068,31.791-25.201,47.162-39.398c15.371-14.908,28.995-28.395,40.873-40.463c10.48-2.84,21.309-6.035,32.488-9.584
	c14.673-2.84,22.01-7.098,22.01-12.777c0-2.13-1.049-4.259-3.145-6.389c-19.563-19.167-41.223-36.561-64.979-52.178l-25.152,29.814
	H515.357c4.192-1.42,7.686-4.967,10.48-10.646c4.192-7.809,6.289-18.458,6.289-31.945c0-5.679-1.747-10.649-5.24-14.908
	c-2.795-5.679-8.733-11.713-17.816-18.102c-6.987-6.389-17.119-13.488-30.395-21.297C466.798,14.424,453.872,6.97,439.898-0.129z
	 M468.195,630.248v75.604H138.063c-51.005,0-91.88-4.259-122.623-12.777l22.01,46.852c17.467-2.13,51.006-3.55,100.613-4.26h257.818
	c-17.468,17.037-36.332,32.656-56.594,46.854c-25.852,19.877-59.39,39.043-100.613,57.5c-30.044,17.037-63.931,31.944-101.66,44.723
	c-35.634,14.907-81.399,29.106-137.295,42.594l7.338,22.361c51.704-9.938,98.866-22.362,141.486-37.27
	c35.633-9.938,74.06-23.78,115.283-41.527c46.114-19.877,86.64-41.529,121.574-64.955c27.947-17.037,55.546-37.27,82.795-60.695
	v115.002c0,18.457-0.698,40.109-2.096,64.955c-1.397,23.426-2.096,42.947-2.096,58.564c0,11.358,8.733,17.037,26.201,17.037
	c22.358,0,35.809-11.713,35.809-35.139c0-7.809-0.697-18.103-2.096-30.881c-2.096-5.679-3.145-16.326-3.145-31.943V742.057
	c30.743,24.846,58.166,45.433,86.813,61.76c30.742,18.457,62.883,35.494,96.42,51.111c28.646,15.617,62.883,31.234,102.709,46.852
	c34.935,12.778,74.76,24.492,119.477,35.141c12.576-22.716,37.379-34.074,74.41-34.074v-18.104
	c-37.729-4.259-78.604-11.002-122.621-20.23c-44.018-10.648-88.035-23.427-132.053-38.334
	c-44.717-14.907-84.193-30.881-118.43-47.918c-26.551-12.068-49.779-26.267-74.234-42.594h413.801
	c9.083,0,13.625-5.322,13.625-15.971c0-4.969-3.144-9.584-9.432-13.844c-21.66-17.037-45.065-35.494-70.219-55.371l-50.307,55.371
	H520.773v-75.604"/>
</svg>
