<?xml version="1.0" encoding="utf-8"?>
<!-- Generator: Adobe Illustrator 16.0.0, SVG Export Plug-In . SVG Version: 6.00 Build 0)  -->
<!DOCTYPE svg PUBLIC "-//W3C//DTD SVG 1.1//EN" "http://www.w3.org/Graphics/SVG/1.1/DTD/svg11.dtd">
<svg version="1.1"
	 id="svg2985" xmlns:dc="http://purl.org/dc/elements/1.1/" xmlns:cc="http://creativecommons.org/ns#" xmlns:rdf="http://www.w3.org/1999/02/22-rdf-syntax-ns#" xmlns:svg="http://www.w3.org/2000/svg" xmlns:sodipodi="http://sodipodi.sourceforge.net/DTD/sodipodi-0.dtd" xmlns:inkscape="http://www.inkscape.org/namespaces/inkscape" sodipodi:docname="Z1328.svg" inkscape:version="0.92.3 (2405546, 2018-03-11)"
	 xmlns="http://www.w3.org/2000/svg" xmlns:xlink="http://www.w3.org/1999/xlink" x="0px" y="0px" width="1066.666px"
	 height="1066.667px" viewBox="0 0 1066.666 1066.667" enable-background="new 0 0 1066.666 1066.667" xml:space="preserve">
<sodipodi:namedview  inkscape:zoom="0.36050182" inkscape:cy="577.48476" inkscape:cx="856.61542" showgrid="false" pagecolor="#ffffff" borderopacity="1" bordercolor="#666666" id="namedview4" inkscape:pageopacity="0" inkscape:window-maximized="1" inkscape:pageshadow="2" inkscape:current-layer="svg2985" inkscape:window-width="1366" inkscape:window-y="-8" inkscape:window-height="705" inkscape:window-x="-8" gridtolerance="10" guidetolerance="10" objecttolerance="10">
	</sodipodi:namedview>
<path id="path15" d="M132.431,656.13l67.856,35.072h195.779l31.147-35.072c38.563,23.383,57.844,39.975,57.844,49.781
	c0,7.541-10.753,17.725-32.259,30.547v123.316h223.59V656.13l65.631,35.072h200.23l35.596-49.779
	c26.697,17.348,46.35,33.564,58.957,48.648c5.933,5.279,8.898,10.559,8.898,15.84c0,6.787-14.831,18.479-44.495,35.07v222.879
	c0,25.643-5.933,44.877-17.798,57.699c-9.641,12.066-23.36,21.873-41.159,29.414c-14.831,8.297-27.81,12.445-38.934,12.445
	l-2.225-18.102c-2.225-9.051-5.562-15.84-10.011-20.365c-7.416-9.051-21.136-16.969-41.159-23.758
	c-20.765-8.297-44.495-13.576-71.192-15.838v-26.021c42.271,11.313,80.463,16.969,114.576,16.969c23.73,0,38.934-2.262,45.607-6.787
	c8.899-4.525,13.349-15.84,13.349-33.941V724.013H729.783v176.49c0,6.789-4.449,12.068-13.349,15.84
	c-11.865,3.771-21.136,5.656-27.81,5.656c-8.157,0-12.236-4.148-12.236-12.445v-19.232H408.303v-1.131
	c-5.19-1.508-7.786-4.148-7.786-7.92V724.013H185.825v321.305c0,6.789-4.449,12.068-13.349,15.84
	c-10.382,3.77-18.91,5.656-25.585,5.656c-9.641,0-14.461-4.148-14.461-12.445V656.13z M219.592-0.086
	c36.786,9.806,69.741,22.251,98.862,37.337c5.364,4.525,8.048,8.674,8.048,12.445c0,6.034-5.365,10.937-16.095,14.708
	c-17.625,4.526-34.104,6.789-49.432,6.789c-13.795,19.611-29.505,38.468-47.132,56.571L196.6,144.735h1.149v376.833
	c0,18.101,0.383,29.792,1.149,35.074c1.533,12.822,2.3,24.139,2.3,33.941c0,23.383-12.263,35.074-36.786,35.074
	c-17.627,0-26.44-6.033-26.44-18.104c0-15.84,0.767-36.207,2.299-61.098c1.533-26.401,2.299-49.783,2.299-70.149V193.387
	c-16.094,12.823-32.188,24.514-48.281,35.074c-19.927,13.577-45.601,27.908-77.021,42.994L0.023,256.746
	c32.188-18.103,59.012-38.091,80.471-59.965c25.291-24.137,48.665-49.028,70.124-74.673c22.225-26.4,40.617-53.177,55.18-80.331
	C212.694,28.2,217.292,14.245,219.592-0.086z M424.863-0.003c35.405,10.592,67.422,23.454,96.048,38.585
	c5.272,4.54,7.91,8.322,7.91,11.349c0,6.809-5.272,12.105-15.819,15.888c-17.326,5.296-33.522,7.944-48.589,7.944
	c-9.04,22.697-18.456,43.881-28.25,63.552h248.595c-3.015-1.513-5.65-6.809-7.91-15.888c-3.769-12.104-9.416-23.454-16.949-34.045
	c-6.781-12.105-13.938-23.076-21.471-32.911c-8.285-9.079-19.586-19.671-33.898-31.776l19.209-13.618
	c15.82,8.322,30.51,16.645,44.068,24.967c14.313,8.322,25.613,15.888,33.899,22.697c10.548,6.809,17.326,13.24,20.341,19.293
	c3.766,5.296,5.647,10.592,5.647,15.888c0,14.375-2.262,26.102-6.779,35.181c-3.014,5.296-6.778,8.701-11.299,10.214h167.232
	l49.721-54.473c27.117,18.158,52.354,36.694,75.707,55.608c6.779,3.783,10.17,7.566,10.17,11.349
	c0,12.105-4.896,18.158-14.688,18.158H708.486v106.25h135.596l45.199-49.934c24.859,18.158,47.836,35.559,68.929,52.204
	c6.026,3.783,9.041,7.944,9.041,12.483c0,12.105-4.521,18.158-13.562,18.158H708.486v110.789h135.596l45.199-49.935
	c24.859,17.4,47.836,34.803,68.929,52.203c6.026,3.026,9.041,6.433,9.041,10.214c0,12.105-4.521,18.231-13.562,18.158H708.486
	v110.791H930.57l49.719-54.473c27.119,19.671,52.355,38.208,75.708,55.608c6.78,3.781,10.17,8.322,10.17,13.617
	c0,12.105-4.896,18.191-14.689,18.158H442.943v3.404c0,21.939-10.924,32.912-32.77,32.912c-17.326,0-25.989-6.434-25.989-19.293
	c0-14.375,0.753-32.912,2.26-55.609c1.507-23.454,2.26-63.879,2.26-81.283V224.7c-3.013,5.296-6.025,10.214-9.04,14.753
	c-15.065,24.21-31.263,46.151-48.589,65.822c-15.065,20.428-35.404,41.61-61.018,63.552l-16.95-14.753
	c24.859-25.725,45.576-53.339,62.148-82.845c19.586-31.776,38.042-66.2,55.368-103.272c17.326-36.316,31.64-73.01,42.938-110.082
	C418.084,39.717,421.851,20.425,424.863-0.003L424.863-0.003z M439.554,559.337h214.693V448.547H438.424v84.688
	C438.424,545.339,438.8,554.041,439.554,559.337z M654.247,417.906V307.117H438.424v110.789H654.247z M654.247,274.207v-106.25
	H438.424v106.25H654.247z"/>
</svg>
