<?xml version="1.0" encoding="utf-8"?>
<!-- Generator: Adobe Illustrator 16.0.3, SVG Export Plug-In . SVG Version: 6.00 Build 0)  -->
<!DOCTYPE svg PUBLIC "-//W3C//DTD SVG 1.1//EN" "http://www.w3.org/Graphics/SVG/1.1/DTD/svg11.dtd">
<svg version="1.1"
	 id="svg4" xmlns:dc="http://purl.org/dc/elements/1.1/" xmlns:cc="http://creativecommons.org/ns#" xmlns:rdf="http://www.w3.org/1999/02/22-rdf-syntax-ns#" xmlns:svg="http://www.w3.org/2000/svg" xmlns:sodipodi="http://sodipodi.sourceforge.net/DTD/sodipodi-0.dtd" xmlns:inkscape="http://www.inkscape.org/namespaces/inkscape" inkscape:version="0.92.4 (5da689c313, 2019-01-14)" sodipodi:docname="Z1330.svg"
	 xmlns="http://www.w3.org/2000/svg" xmlns:xlink="http://www.w3.org/1999/xlink" x="0px" y="0px" width="1000px" height="1000px"
	 viewBox="0 0 1000 1000" enable-background="new 0 0 1000 1000" xml:space="preserve">
<path id="path3756" d="M119.889,246.882l58.342,38.468h377.975l35.006-47.017c25.458,16.385,43.845,31.701,55.16,45.948
	c4.95,4.987,7.425,9.617,7.425,13.892c0,7.124-9.144,18.522-37.431,34.194l-5,569.548c0,24.221-4.95,42.387-14.851,54.497
	c-8.486,11.397-20.862,20.659-37.127,27.782c-13.437,7.837-25.813,11.755-37.127,11.755c0-17.098-3.89-29.208-11.669-36.332
	c-7.778-8.548-22.629-16.385-44.552-23.508c-23.337-7.124-32.194-9.368-51.395-12.937v-24.578
	c53.039,11.398,72.964,16.143,116.102,16.143c14.144,0,22.983-2.137,26.519-6.411c4.951-3.562,5.805-13.263,7.426-28.852V687.132
	H384.19v192.343c0,17.098,1.061,28.14,3.183,33.126c1.414,12.11,2.121,22.796,2.121,32.057c0,22.084-11.314,33.126-33.944,33.126
	c-17.68,0-26.52-5.699-26.52-17.097c0-14.96,0.707-34.194,2.122-57.703c1.414-24.934-0.428-47.187,2.121-66.251V687.132h-165.65
	c0,4.274-0.354,8.549-1.061,12.823c-2.122,34.194-8.133,69.101-18.033,104.72c-7.072,28.495-16.972,54.854-29.702,79.074
	c-11.315,22.084-25.458,43.099-42.431,63.046c-15.558,17.097-36.773,34.906-63.646,53.429l-12.729-8.549
	c17.68-15.673,32.53-32.413,44.553-50.223c12.022-17.098,22.276-34.551,30.762-52.36c9.193-20.659,16.972-44.523,23.337-71.594
	c8.486-31.345,14.144-63.046,16.972-95.103c5.657-43.455,8.486-91.897,8.486-145.326
	C124.131,439.58,122.717,329.518,119.889,246.882z M169.745,657.212h163.529V500.133H173.988v76.937
	C173.988,605.564,172.573,632.279,169.745,657.212z M384.19,500.133v157.079h180.501V500.133H384.19z M173.988,469.144h159.286
	V316.339H173.988V469.144z M384.19,316.339v152.805h180.501V316.339H384.19z M7.367,74.009
	c31.211,8.576,72.709,12.865,124.493,12.865h134.069l-10.64-86.835C286.5,3.612,313.811,7.9,337.22,12.903
	c7.803,2.144,11.704,5.003,11.704,8.576c0,4.288-4.61,8.934-13.832,13.937c-8.513,5.718-16.67,9.648-24.473,11.792l4.256,39.666
	h58.522l42.562-47.17c23.408,16.438,45.044,32.876,64.906,49.313c5.675,2.859,8.513,6.075,8.513,9.648
	c0,12.15-4.611,18.225-13.833,18.225H318.067l8.512,71.826c0,7.147-3.192,11.792-9.576,13.937
	c-7.803,5.718-15.961,8.576-24.473,8.576c-7.094,0-11.35-3.216-12.769-9.648l-10.641-84.691H131.86
	c-50.365,0.715-84.414,2.144-102.148,4.288L7.367,74.009z M701.122,0.039c30.502,2.858,58.167,9.648,82.995,20.369
	c4.256,2.859,6.384,6.432,6.384,10.72c0,5.718-5.319,10.363-15.96,13.937c-10.641,2.858-20.927,5.003-30.857,6.432
	c-1.419,12.15-2.838,23.942-4.256,35.377h131.94l46.818-51.458c25.537,17.152,49.655,34.663,72.354,52.53
	c6.385,2.859,9.576,6.432,9.576,10.72c0,12.15-4.256,18.225-12.769,18.225H735.171v1.072c-2.837,22.87-6.739,47.884-11.704,75.042
	c-2.838,12.15-13.123,18.225-30.857,18.225c-13.478,0-20.217-4.645-20.217-13.936l1.064-10.72
	c2.128-5.718,4.256-15.009,6.384-27.873c2.838-15.009,5.32-28.945,7.448-41.81h-14.896c-50.364,0.715-84.769,2.144-103.212,4.288
	L547.9,74.009c31.211,8.576,72.709,12.865,124.492,12.865h19.152C696.511,53.998,699.703,25.053,701.122,0.039z M701.122,291.632
	c34.759,5.718,63.487,13.579,86.188,23.585c8.512,3.573,12.769,8.576,12.769,15.008c0,6.433-3.547,11.078-10.641,13.937
	c-9.932,7.147-20.572,11.435-31.922,12.864v420.238c0,13.579-9.931,20.368-29.793,20.368c-17.734,0-26.601-8.219-26.601-24.656
	c0-9.291,0.709-21.084,2.128-35.378c1.419-14.293,2.128-27.158,2.128-38.593v-321.61
	C705.378,339.517,703.959,310.929,701.122,291.632z M884.137,211.229c39.725,5.003,74.483,13.58,104.276,25.729
	c7.803,3.574,11.704,7.504,11.704,11.792c0,7.147-4.965,12.507-14.896,16.081c-14.896,4.288-29.793,7.504-44.689,9.648v631.428
	c0,24.3-5.675,42.524-17.024,54.674c-9.222,11.436-22.345,20.727-39.37,27.873c-14.188,7.861-26.601,11.792-37.241,11.792
	l-2.128-18.225c-2.128-7.861-5.32-13.937-9.576-18.225c-8.513-8.576-22.7-16.08-42.563-22.513
	c-21.28-7.861-45.754-12.864-73.418-15.008V901.62c43.271,10.721,82.641,16.081,118.108,16.081c20.571,0,34.049-2.145,40.434-6.433
	c7.803-4.288,11.704-15.009,11.704-32.161V295.92C889.457,255.183,887.684,226.953,884.137,211.229z"/>
</svg>
